<svg width="642" height="600" viewBox="0 0 642 600" fill="none" xmlns="http://www.w3.org/2000/svg">
<g clip-path="url(#clip0_78_398)">
<path d="M739.37 353.24C578.59 493.1 694.22 601.68 311.47 573.2C132.28 559.85 43.53 423.65 22.98 299.2C-2.49998 144.91 94.99 35.38 363.38 35.38C484.45 35.38 593.68 -1.15004 669.94 48.03C776.24 116.61 818.47 284.44 739.37 353.24Z" fill="url(#paint0_linear_78_398)"/>
<path d="M564.13 130.24H150.84V543.53H564.13V130.24Z" fill="url(#paint1_radial_78_398)"/>
<path d="M545.01 358.78L495.47 387.65L496.19 388.89L545.73 360.02C546.44 359.6 546.88 358.86 546.89 358.03C546.9 357.2 546.49 356.45 545.78 356.01L539.73 352.26C539.45 352.09 539.3 351.8 539.3 351.47C539.31 351.15 539.48 350.86 539.76 350.71L558.34 340.26C558.87 340.39 559.45 340.48 560.08 340.48C562.27 340.48 564.04 339.58 564.04 338.46C564.04 337.35 562.27 336.44 560.08 336.44C557.89 336.44 556.12 337.34 556.12 338.46C556.12 338.85 556.35 339.21 556.72 339.52L539.05 349.45C538.32 349.86 537.88 350.6 537.86 351.44C537.84 352.27 538.25 353.04 538.97 353.48L545.02 357.23C545.3 357.4 545.45 357.68 545.45 358.01C545.45 358.33 545.29 358.61 545.01 358.78Z" fill="url(#paint2_linear_78_398)"/>
<path d="M565.31 358.2C567.49 358.2 569.27 357.3 569.27 356.18C569.27 355.07 567.5 354.16 565.31 354.16C563.12 354.16 561.35 355.06 561.35 356.18C561.35 356.58 561.59 356.96 561.99 357.28L501.19 392.65L501.91 393.89L563.61 358C564.13 358.12 564.7 358.2 565.31 358.2Z" fill="url(#paint3_linear_78_398)"/>
<path d="M564.99 298.71L455.94 361.67L456.66 362.91L566.61 299.43C567.13 299.56 567.7 299.63 568.31 299.63C570.49 299.63 572.27 298.73 572.27 297.61C572.27 296.5 570.5 295.59 568.31 295.59C566.12 295.59 564.35 296.49 564.35 297.61C564.35 298.03 564.59 298.4 564.99 298.71Z" fill="url(#paint4_linear_78_398)"/>
<path d="M474.15 321.81L430.33 347.79L431.06 349.02L474.88 323.04C475.99 322.38 476.65 321.21 476.64 319.92C476.63 318.63 475.96 317.47 474.84 316.82L468.94 313.42C468.27 313.04 467.87 312.35 467.86 311.58C467.85 310.81 468.23 310.11 468.88 309.71L482.06 301.48C482.55 301.59 483.09 301.65 483.66 301.65C485.85 301.65 487.62 300.75 487.62 299.63C487.62 298.52 485.85 297.61 483.66 297.61C481.48 297.61 479.7 298.51 479.7 299.63C479.7 300.06 479.98 300.46 480.43 300.79L468.12 308.48C467.04 309.16 466.4 310.32 466.43 311.6C466.45 312.88 467.13 314.02 468.23 314.66L474.13 318.06C474.8 318.45 475.21 319.15 475.21 319.92C475.21 320.71 474.81 321.41 474.15 321.81Z" fill="url(#paint5_linear_78_398)"/>
<path d="M527.1 407.48L598.24 366.41C600.37 365.18 603.04 365.3 605.05 366.72L611.56 371.32C614.13 373.14 617.51 373.23 620.17 371.55L630.16 365.25C630.59 365.33 631.05 365.38 631.54 365.38C633.73 365.38 635.5 364.48 635.5 363.36C635.5 362.24 633.73 361.34 631.54 361.34C629.36 361.34 627.58 362.24 627.58 363.36C627.58 363.84 627.92 364.27 628.46 364.62L619.4 370.34C617.23 371.71 614.48 371.63 612.38 370.15L605.87 365.55C603.41 363.81 600.13 363.66 597.51 365.16L526.37 406.23L527.1 407.48Z" fill="url(#paint6_linear_78_398)"/>
<path d="M251.42 358.89C251.14 358.73 250.98 358.45 250.97 358.12C250.97 357.8 251.12 357.51 251.4 357.34L257.45 353.59C258.16 353.15 258.57 352.39 258.56 351.56C258.54 350.72 258.1 349.98 257.37 349.57L239.7 339.64C240.08 339.33 240.3 338.97 240.3 338.58C240.3 337.47 238.53 336.56 236.34 336.56C234.16 336.56 232.38 337.46 232.38 338.58C232.38 339.7 234.15 340.6 236.34 340.6C236.97 340.6 237.55 340.52 238.08 340.39L256.66 350.83C256.95 350.99 257.11 351.27 257.12 351.6C257.13 351.92 256.97 352.21 256.69 352.38L250.64 356.13C249.94 356.57 249.52 357.32 249.53 358.15C249.54 358.98 249.98 359.72 250.69 360.14L300.23 389.01L300.95 387.77L251.42 358.89Z" fill="url(#paint7_linear_78_398)"/>
<path d="M235.08 356.29C235.08 355.17 233.31 354.27 231.12 354.27C228.93 354.27 227.16 355.17 227.16 356.29C227.16 357.4 228.93 358.31 231.12 358.31C231.73 358.31 232.3 358.23 232.81 358.11L294.51 394L295.23 392.76L234.44 357.4C234.84 357.07 235.08 356.7 235.08 356.29Z" fill="url(#paint8_linear_78_398)"/>
<path d="M164.88 365.49C165.37 365.49 165.83 365.44 166.26 365.36L176.25 371.66C178.91 373.34 182.3 373.25 184.87 371.43L191.38 366.83C193.39 365.41 196.06 365.29 198.19 366.52L269.33 407.59L270.05 406.35L198.91 365.28C196.3 363.77 193.02 363.92 190.55 365.66L184.04 370.26C181.95 371.74 179.19 371.81 177.02 370.44L167.96 364.72C168.5 364.37 168.84 363.94 168.84 363.46C168.84 362.35 167.07 361.44 164.88 361.44C162.69 361.44 160.92 362.34 160.92 363.46C160.93 364.59 162.7 365.49 164.88 365.49Z" fill="url(#paint9_linear_78_398)"/>
<path d="M228.12 299.75C228.73 299.75 229.31 299.67 229.82 299.55L339.77 363.03L340.49 361.79L231.44 298.83C231.84 298.52 232.07 298.14 232.07 297.74C232.07 296.63 230.3 295.72 228.11 295.72C225.92 295.72 224.15 296.62 224.15 297.74C224.16 298.85 225.93 299.75 228.12 299.75Z" fill="url(#paint10_linear_78_398)"/>
<path d="M321.22 320.05C321.22 319.27 321.63 318.58 322.3 318.19L328.2 314.79C329.3 314.15 329.98 313.01 330 311.73C330.02 310.45 329.39 309.29 328.3 308.61L315.99 300.92C316.45 300.59 316.72 300.19 316.72 299.76C316.72 298.64 314.95 297.74 312.76 297.74C310.57 297.74 308.8 298.64 308.8 299.76C308.8 300.87 310.57 301.78 312.76 301.78C313.33 301.78 313.87 301.72 314.36 301.61L327.54 309.84C328.19 310.25 328.57 310.95 328.56 311.71C328.55 312.48 328.14 313.16 327.48 313.55L321.58 316.95C320.46 317.6 319.79 318.76 319.78 320.05C319.77 321.34 320.43 322.51 321.55 323.17L365.37 349.16L366.1 347.92L322.28 321.93C321.61 321.53 321.22 320.82 321.22 320.05Z" fill="url(#paint11_linear_78_398)"/>
<path d="M251.42 490.3L300.96 461.44L300.24 460.2L250.7 489.07C249.98 489.49 249.55 490.23 249.54 491.06C249.53 491.89 249.94 492.64 250.65 493.08L256.7 496.83C256.98 497 257.13 497.29 257.13 497.61C257.12 497.94 256.96 498.22 256.67 498.38L238.09 508.82C237.56 508.69 236.98 508.6 236.35 508.6C234.17 508.6 232.39 509.5 232.39 510.62C232.39 511.73 234.16 512.64 236.35 512.64C238.54 512.64 240.31 511.74 240.31 510.62C240.31 510.23 240.08 509.87 239.71 509.56L257.38 499.63C258.11 499.22 258.55 498.48 258.57 497.64C258.59 496.8 258.17 496.04 257.46 495.6L251.41 491.85C251.13 491.68 250.98 491.4 250.98 491.07C250.97 490.74 251.14 490.46 251.42 490.3Z" fill="url(#paint12_linear_78_398)"/>
<path d="M231.12 490.87C228.93 490.87 227.16 491.77 227.16 492.89C227.16 494 228.93 494.91 231.12 494.91C233.31 494.91 235.08 494.01 235.08 492.89C235.08 492.48 234.84 492.11 234.44 491.79L295.23 456.42L294.51 455.18L232.82 491.07C232.3 490.95 231.73 490.87 231.12 490.87Z" fill="url(#paint13_linear_78_398)"/>
<path d="M231.44 550.36L340.49 487.4L339.77 486.16L229.82 549.64C229.3 549.51 228.73 549.44 228.11 549.44C225.92 549.44 224.15 550.34 224.15 551.46C224.15 552.57 225.92 553.48 228.11 553.48C230.3 553.48 232.07 552.58 232.07 551.46C232.07 551.05 231.84 550.67 231.44 550.36Z" fill="url(#paint14_linear_78_398)"/>
<path d="M322.28 527.26L366.1 501.27L365.37 500.04L321.55 526.02C320.44 526.68 319.78 527.85 319.78 529.14C319.79 530.43 320.46 531.59 321.58 532.24L327.48 535.64C328.14 536.02 328.55 536.71 328.56 537.48C328.57 538.25 328.19 538.95 327.54 539.35L314.36 547.57C313.87 547.46 313.33 547.4 312.76 547.4C310.57 547.4 308.8 548.3 308.8 549.42C308.8 550.53 310.57 551.44 312.76 551.44C314.94 551.44 316.72 550.54 316.72 549.42C316.72 548.98 316.44 548.58 315.99 548.25L328.3 540.56C329.38 539.89 330.02 538.72 330 537.44C329.98 536.17 329.3 535.02 328.2 534.38L322.3 530.98C321.63 530.59 321.22 529.89 321.22 529.12C321.22 528.36 321.61 527.66 322.28 527.26Z" fill="url(#paint15_linear_78_398)"/>
<path d="M269.33 441.59L198.19 482.66C196.06 483.89 193.39 483.77 191.38 482.35L184.87 477.75C182.3 475.93 178.92 475.85 176.25 477.52L166.25 483.82C165.82 483.74 165.36 483.69 164.87 483.69C162.68 483.69 160.91 484.59 160.91 485.71C160.91 486.83 162.68 487.73 164.87 487.73C167.06 487.73 168.83 486.83 168.83 485.71C168.83 485.23 168.49 484.8 167.95 484.46L177.01 478.74C179.18 477.37 181.94 477.45 184.03 478.93L190.54 483.53C193 485.27 196.28 485.42 198.9 483.91L270.04 442.84L269.33 441.59Z" fill="url(#paint16_linear_78_398)"/>
<path d="M569.26 492.78C569.26 491.67 567.49 490.76 565.3 490.76C564.69 490.76 564.12 490.84 563.61 490.96L501.91 455.07L501.19 456.31L561.99 491.68C561.59 492 561.35 492.37 561.35 492.78C561.35 493.9 563.12 494.8 565.31 494.8C567.49 494.8 569.26 493.89 569.26 492.78Z" fill="url(#paint17_linear_78_398)"/>
<path d="M556.13 510.5C556.13 511.61 557.9 512.52 560.09 512.52C562.28 512.52 564.05 511.62 564.05 510.5C564.05 509.39 562.28 508.48 560.09 508.48C559.46 508.48 558.88 508.56 558.35 508.69L539.77 498.25C539.49 498.09 539.32 497.81 539.31 497.48C539.3 497.15 539.46 496.87 539.74 496.7L545.79 492.95C546.5 492.52 546.91 491.76 546.9 490.93C546.89 490.1 546.45 489.36 545.74 488.94L496.2 460.07L495.48 461.31L545.02 490.18C545.3 490.34 545.46 490.62 545.47 490.95C545.47 491.27 545.32 491.56 545.04 491.73L538.99 495.48C538.28 495.92 537.87 496.68 537.88 497.52C537.9 498.36 538.34 499.1 539.07 499.51L556.74 509.44C556.36 509.75 556.13 510.11 556.13 510.5Z" fill="url(#paint18_linear_78_398)"/>
<path d="M631.54 483.58C631.05 483.58 630.59 483.63 630.16 483.71L620.17 477.41C617.51 475.73 614.12 475.82 611.56 477.64L605.05 482.24C603.04 483.66 600.37 483.78 598.24 482.55L527.1 441.48L526.38 442.72L597.52 483.79C600.13 485.3 603.41 485.15 605.88 483.41L612.39 478.81C614.48 477.33 617.24 477.26 619.41 478.62L628.47 484.34C627.93 484.69 627.59 485.12 627.59 485.6C627.59 486.71 629.36 487.62 631.55 487.62C633.74 487.62 635.51 486.72 635.51 485.6C635.5 484.48 633.73 483.58 631.54 483.58Z" fill="url(#paint19_linear_78_398)"/>
<path d="M483.66 547.3C483.09 547.3 482.55 547.36 482.06 547.47L468.88 539.24C468.23 538.83 467.85 538.13 467.86 537.37C467.87 536.6 468.28 535.92 468.94 535.53L474.84 532.12C475.96 531.48 476.63 530.32 476.64 529.02C476.65 527.73 475.99 526.56 474.87 525.9L431.05 499.91L430.32 501.15L474.14 527.13C474.81 527.53 475.21 528.23 475.2 529.01C475.2 529.79 474.79 530.48 474.12 530.87L468.22 534.27C467.12 534.91 466.44 536.05 466.42 537.33C466.4 538.61 467.03 539.77 468.11 540.45L480.42 548.14C479.96 548.47 479.69 548.87 479.69 549.3C479.69 550.41 481.46 551.32 483.65 551.32C485.84 551.32 487.61 550.42 487.61 549.3C487.61 548.2 485.84 547.3 483.66 547.3Z" fill="url(#paint20_linear_78_398)"/>
<path d="M568.31 549.32C567.7 549.32 567.12 549.4 566.6 549.52L456.65 486.04L455.93 487.28L564.98 550.24C564.58 550.56 564.35 550.93 564.35 551.33C564.35 552.44 566.12 553.35 568.31 553.35C570.49 553.35 572.27 552.45 572.27 551.33C572.27 550.21 570.5 549.32 568.31 549.32Z" fill="url(#paint21_linear_78_398)"/>
<path d="M618.94 180.85C618.94 180.85 539.25 131.86 373.21 131.11C317.87 130.86 218.43 145.63 159.09 174.43C89.97 207.99 86.97 251.06 86.97 251.06L86.96 256.79C90.7 268.2 101.28 295.44 120.9 309.97C146.14 328.67 161.1 336.21 161.1 336.21L169.5 331.47L610.32 183.79L618.94 180.85Z" fill="url(#paint22_linear_78_398)"/>
<path d="M90.6801 465.03C90.6801 465.03 121.23 373.87 339.61 356.34C490.4 344.23 610.33 397.16 610.33 397.16V183.79C610.33 183.79 540.66 138.86 374.62 138.107C319.28 137.86 219.84 152.63 160.5 181.43C91.3801 215 91.1801 260.18 91.1801 260.18L90.6801 465.03Z" fill="url(#paint23_linear_78_398)"/>
<g opacity="0.3">
<path opacity="0.56" d="M315.61 179.02V189.85L204.81 213.89L204.57 202.76L315.61 179.02Z" fill="white"/>
<path opacity="0.56" d="M315.61 195.7V206.53L204.81 230.56L204.57 219.45L315.61 195.7Z" fill="white"/>
<path opacity="0.56" d="M315.61 212.37V223.2L204.81 247.24L204.57 236.12L315.61 212.37Z" fill="white"/>
<path opacity="0.56" d="M315.61 229.05V239.88L204.81 263.91L204.57 252.79L315.61 229.05Z" fill="white"/>
<path opacity="0.56" d="M315.61 245.73V256.56L265.94 267.75L265.7 256.63L315.61 245.73Z" fill="white"/>
<path opacity="0.56" d="M315.61 262.4V273.23L204.81 297.26L204.57 286.15L315.61 262.4Z" fill="white"/>
<path opacity="0.56" d="M315.61 279.08V289.91L204.81 313.94L204.57 302.82L315.61 279.08Z" fill="white"/>
<path opacity="0.56" d="M315.61 295.75V306.58L204.81 330.62L204.57 319.5L315.61 295.75Z" fill="white"/>
<path opacity="0.56" d="M315.61 312.43V323.26L204.81 347.29L204.57 336.18L315.61 312.43Z" fill="white"/>
</g>
<g opacity="0.7">
<path d="M519.91 329.54L560.97 305.83L602.03 329.54L560.4 352.91L519.91 329.54Z" fill="#2B73B5"/>
<path d="M519.91 315.43L560.97 291.73L602.03 315.43L560.4 338.81L519.91 315.43Z" fill="#56ABDD"/>
<path d="M519.91 297.73L560.97 274.03L602.03 297.73L560.4 321.11L519.91 297.73Z" fill="#951AAC"/>
<path d="M519.91 282.45L560.97 258.75L602.03 282.45L560.4 305.83L519.91 282.45Z" fill="#741AAC"/>
<path d="M519.91 267.18L560.97 243.47L602.03 267.18L560.4 290.55L519.91 267.18Z" fill="#A91AAC"/>
<path d="M519.91 252.75L560.97 229.04L602.03 252.75L560.4 276.12L519.91 252.75Z" fill="#00DDD2"/>
<path d="M519.91 238.32L560.97 214.62L602.03 238.32L560.4 261.7L519.91 238.32Z" fill="#00CCBD"/>
<path d="M519.91 223.9L560.97 200.19L602.03 223.9L560.4 247.27L519.91 223.9Z" fill="#00DDD2"/>
</g>
<g opacity="0.6">
<path opacity="0.56" d="M445.02 154.66V161.33L513.24 173.61L513.39 166.76L445.02 154.66Z" fill="white"/>
<path opacity="0.56" d="M445.02 164.93V171.59L513.24 183.88L513.39 177.03L445.02 164.93Z" fill="white"/>
<path opacity="0.56" d="M445.02 175.19V181.86L513.24 194.14L513.39 187.29L445.02 175.19Z" fill="white"/>
<path opacity="0.56" d="M445.02 185.46V192.13L513.24 204.41L513.39 197.56L445.02 185.46Z" fill="white"/>
<path opacity="0.56" d="M445.02 195.73V202.39L475.61 208.16L475.75 201.31L445.02 195.73Z" fill="white"/>
<path opacity="0.56" d="M445.02 205.99V212.66L513.24 224.95L513.39 218.1L445.02 205.99Z" fill="white"/>
<path opacity="0.56" d="M445.02 216.26V222.93L513.24 235.21L513.39 228.36L445.02 216.26Z" fill="white"/>
<path opacity="0.56" d="M445.02 226.53V233.19L513.24 245.48L513.39 238.63L445.02 226.53Z" fill="white"/>
<path opacity="0.56" d="M445.02 236.79V243.46L513.24 255.75L513.39 248.9L445.02 236.79Z" fill="white"/>
</g>
<g opacity="0.6">
<path opacity="0.56" d="M445.02 252.27V258.94L513.24 271.23L513.39 264.38L445.02 252.27Z" fill="white"/>
<path opacity="0.56" d="M445.02 262.54V269.21L513.24 281.49L513.39 274.64L445.02 262.54Z" fill="white"/>
<path opacity="0.56" d="M445.02 272.81V279.47L513.24 291.76L513.39 284.91L445.02 272.81Z" fill="white"/>
<path opacity="0.56" d="M445.02 283.07V289.74L513.24 302.03L513.39 295.18L445.02 283.07Z" fill="white"/>
<path opacity="0.56" d="M445.02 293.34V300.01L475.61 305.77L475.75 298.92L445.02 293.34Z" fill="white"/>
<path opacity="0.56" d="M445.02 303.61V310.27L513.24 322.56L513.39 315.71L445.02 303.61Z" fill="white"/>
<path opacity="0.56" d="M445.02 313.87V320.54L513.24 332.83L513.39 325.98L445.02 313.87Z" fill="white"/>
<path opacity="0.56" d="M445.02 324.14V330.81L513.24 343.09L513.39 336.24L445.02 324.14Z" fill="white"/>
<path opacity="0.56" d="M445.02 334.41V341.07L513.24 353.36L513.39 346.51L445.02 334.41Z" fill="white"/>
</g>
<path d="M133.08 293.27C145.611 293.27 155.77 276.212 155.77 255.17C155.77 234.128 145.611 217.07 133.08 217.07C120.549 217.07 110.39 234.128 110.39 255.17C110.39 276.212 120.549 293.27 133.08 293.27Z" fill="#701AAC"/>
<path d="M136.51 380.89C149.041 380.89 159.2 363.832 159.2 342.79C159.2 321.748 149.041 304.69 136.51 304.69C123.979 304.69 113.82 321.748 113.82 342.79C113.82 363.832 123.979 380.89 136.51 380.89Z" fill="url(#paint24_linear_78_398)"/>
<path d="M353.4 292.7L352.63 328.8L367.92 328L368.7 291.93L353.4 292.7Z" fill="#00DDD2"/>
<path d="M339.16 275.46L353.4 292.7L352.63 328.8L337.75 310.33L339.16 275.46Z" fill="#00CCBD"/>
<path d="M339.16 275.46L354.19 274.57L368.7 291.93L353.4 292.7L339.16 275.46Z" fill="#00FFEC"/>
<path d="M385.44 259.76L383.99 327L399.28 326.21L400.73 258.99L385.44 259.76Z" fill="#951AAC"/>
<path d="M371.19 242.52L385.44 259.76L383.99 327L369.11 308.54L371.19 242.52Z" fill="#741AAC"/>
<path d="M371.19 242.52L386.23 241.63L400.73 258.99L385.44 259.76L371.19 242.52Z" fill="#A91AAC"/>
<path d="M417.47 215.27L415.07 327.08L430.37 326.29L432.77 214.5L417.47 215.27Z" fill="#56ABDD"/>
<path d="M403.23 198.03L417.47 215.27L415.07 327.08L400.19 308.61L403.23 198.03Z" fill="#2B73B5"/>
<path d="M403.23 198.03L418.26 197.14L432.77 214.5L417.47 215.27L403.23 198.03Z" fill="#009BDD"/>
<path d="M160.61 544.11L161.1 336.21C161.1 336.21 142.07 330.2 115.02 305.16C87.97 280.12 87.47 248.56 87.47 248.56L85.47 458.42C85.47 458.42 86.41 481.65 108.01 512.51C120.43 530.25 141.63 541.2 152.95 546.08L160.61 544.11Z" fill="url(#paint25_linear_78_398)"/>
<g opacity="0.8">
<path opacity="0.56" d="M92.2401 315.14V321.8L142.9 359.01L143.01 352.22L92.2401 315.14Z" fill="white"/>
<path opacity="0.56" d="M92.2401 325.4V332.07L142.9 369.28L143.01 362.48L92.2401 325.4Z" fill="white"/>
<path opacity="0.56" d="M92.2401 335.67V342.34L142.9 379.55L143.01 372.75L92.2401 335.67Z" fill="white"/>
<path opacity="0.56" d="M92.2401 345.94V352.6L142.9 389.81L143.01 383.02L92.2401 345.94Z" fill="white"/>
<path opacity="0.56" d="M92.2401 356.2V362.87L114.95 379.81L115.06 373.01L92.2401 356.2Z" fill="white"/>
<path opacity="0.56" d="M92.2401 366.47V373.14L142.9 410.35L143.01 403.55L92.2401 366.47Z" fill="white"/>
<path opacity="0.56" d="M92.2401 376.74V383.4L142.9 420.61L143.01 413.82L92.2401 376.74Z" fill="white"/>
<path opacity="0.56" d="M92.2401 387V393.67L142.9 430.88L143.01 424.08L92.2401 387Z" fill="white"/>
<path opacity="0.56" d="M92.2401 397.27V403.94L142.9 441.15L143.01 434.35L92.2401 397.27Z" fill="white"/>
<path opacity="0.56" d="M92.2401 427.55V434.22L142.9 471.43L143.01 464.63L92.2401 427.55Z" fill="white"/>
<path opacity="0.56" d="M92.2401 437.82V444.48L142.9 481.69L143.01 474.9L92.2401 437.82Z" fill="white"/>
<path opacity="0.56" d="M92.2401 448.08V454.75L142.9 491.96L143.01 485.16L92.2401 448.08Z" fill="white"/>
<path opacity="0.56" d="M92.2401 458.35V465.02L142.9 502.23L143.01 495.43L92.2401 458.35Z" fill="white"/>
</g>
<path d="M87.47 248.56L87.21 275.99C97.1 297.65 118.25 328.79 161.08 343.08L161.1 336.21C161.1 336.21 142.07 330.2 115.02 305.16C87.98 280.12 87.47 248.56 87.47 248.56Z" fill="url(#paint26_linear_78_398)"/>
<path d="M161.1 336.21L153.51 340.69V545.81L161.13 544.29L161.1 336.21Z" fill="url(#paint27_linear_78_398)"/>
<path d="M610.32 183.79V397.16L618.94 392.63V180.85L610.32 183.79Z" fill="url(#paint28_linear_78_398)"/>
<path d="M179.39 137.09C182.544 137.09 185.1 134.533 185.1 131.38C185.1 128.226 182.544 125.67 179.39 125.67C176.237 125.67 173.68 128.226 173.68 131.38C173.68 134.533 176.237 137.09 179.39 137.09Z" fill="#B3EFFF"/>
<path d="M573.48 100.8C587.13 114.51 609.29 114.57 623.01 100.93C636.72 87.29 636.78 65.12 623.14 51.41C609.5 37.7 587.33 37.64 573.62 51.28C559.89 64.92 559.84 87.09 573.48 100.8Z" fill="url(#paint29_linear_78_398)"/>
<path d="M267.3 86.85C274.237 86.85 279.86 81.2267 279.86 74.29C279.86 67.3533 274.237 61.73 267.3 61.73C260.363 61.73 254.74 67.3533 254.74 74.29C254.74 81.2267 260.363 86.85 267.3 86.85Z" fill="url(#paint30_linear_78_398)"/>
<path opacity="0.6" d="M65.6601 210.33C70.8626 210.33 75.0801 206.113 75.0801 200.91C75.0801 195.707 70.8626 191.49 65.6601 191.49C60.4575 191.49 56.2401 195.707 56.2401 200.91C56.2401 206.113 60.4575 210.33 65.6601 210.33Z" fill="url(#paint31_linear_78_398)"/>
<path d="M430.56 86.8499C433.714 86.8499 436.27 84.2935 436.27 81.1399C436.27 77.9864 433.714 75.4299 430.56 75.4299C427.407 75.4299 424.85 77.9864 424.85 81.1399C424.85 84.2935 427.407 86.8499 430.56 86.8499Z" fill="#125CAE"/>
<path d="M346.08 77.95L347.28 80.3899L349.97 80.7799L348.02 82.6699L348.48 85.3499L346.08 84.09L343.68 85.3499L344.13 82.6699L342.19 80.7799L344.88 80.3899L346.08 77.95Z" fill="white"/>
<path opacity="0.4" d="M103.34 139.96L104.54 142.4L107.23 142.79L105.28 144.69L105.74 147.36L103.34 146.1L100.93 147.36L101.39 144.69L99.4501 142.79L102.14 142.4L103.34 139.96Z" fill="white"/>
<path d="M60.5201 285.54L61.7201 287.98L64.4101 288.37L62.4701 290.27L62.9201 292.94L60.5201 291.68L58.1201 292.94L58.5801 290.27L56.6301 288.37L59.3201 287.98L60.5201 285.54Z" fill="white"/>
<path d="M620.35 387.05V397.45L638.56 408.18V397.45L620.35 387.05Z" fill="#56ABDD"/>
<path d="M620.35 387.05L638.56 376.32L656.96 386.94L638.56 397.45L620.35 387.05Z" fill="#009BDD"/>
<path d="M656.96 386.94V397.45L638.56 408.18V397.45L656.96 386.94Z" fill="#2B73B5"/>
<g opacity="0.73">
<path d="M621.35 384.14L620.42 75.78C620.42 75.78 647.99 80.47 656.38 84.34C672.51 91.79 713.75 131.43 713.75 131.43L712.79 384.14L667.07 410.54L621.35 384.14Z" fill="url(#paint32_linear_78_398)"/>
</g>
<path d="M184.5 524.66V535.07L202.71 545.8V535.07L184.5 524.66Z" fill="#56ABDD"/>
<path d="M184.5 524.66L202.71 513.93L221.11 524.56L202.71 535.07L184.5 524.66Z" fill="#009BDD"/>
<path d="M221.11 524.56V535.07L202.71 545.8V535.07L221.11 524.56Z" fill="#2B73B5"/>
<path d="M156.99 540.6V551L175.2 561.74V551L156.99 540.6Z" fill="#56ABDD"/>
<path d="M156.99 540.6L175.2 529.87L193.6 540.49L175.2 551L156.99 540.6Z" fill="#009BDD"/>
<path d="M193.6 540.49V551L175.2 561.74V551L193.6 540.49Z" fill="#2B73B5"/>
<path d="M212.05 540.6V551L230.26 561.74V551L212.05 540.6Z" fill="#56ABDD"/>
<path d="M212.05 540.6L230.26 529.87L248.66 540.49L230.26 551L212.05 540.6Z" fill="#009BDD"/>
<path d="M248.66 540.49V551L230.26 561.74V551L248.66 540.49Z" fill="#2B73B5"/>
<path d="M184.54 556.53V566.94L202.75 577.67V566.94L184.54 556.53Z" fill="#56ABDD"/>
<path d="M184.54 556.53L202.75 545.8L221.15 556.42L202.75 566.94L184.54 556.53Z" fill="#009BDD"/>
<path d="M221.15 556.42V566.94L202.75 577.67V566.94L221.15 556.42Z" fill="#2B73B5"/>
<path opacity="0.73" d="M156.99 540.69L156.06 69.9099C156.06 69.9099 183.01 62.5399 192.02 60.4899C229.63 51.9299 249.39 47.6499 249.39 47.6499L248.43 540.7L202.71 567.1L156.99 540.69Z" fill="url(#paint33_linear_78_398)"/>
<g opacity="0.5">
<path d="M238.11 522.66C238.14 522.16 238.17 521.67 238.21 521.17C238.17 521.67 238.14 522.16 238.11 522.66Z" fill="url(#paint34_linear_78_398)"/>
<path d="M204.24 481.18C201.12 480.98 198.76 478.27 198.96 475.14C199.15 472.01 201.83 469.61 204.95 469.81C208.04 470.01 210.4 472.73 210.21 475.85C210.01 478.99 207.34 481.38 204.24 481.18Z" fill="url(#paint35_radial_78_398)"/>
<path d="M204.96 515.57C202.14 515.39 200.01 512.94 200.18 510.1C200.36 507.26 202.78 505.09 205.6 505.27C208.41 505.45 210.54 507.9 210.37 510.74C210.19 513.59 207.77 515.75 204.96 515.57Z" fill="url(#paint36_radial_78_398)"/>
<path d="M192.98 503.63C191.22 503.52 189.87 501.99 189.98 500.21C190.09 498.42 191.61 497.07 193.38 497.18C195.14 497.29 196.49 498.82 196.37 500.61C196.26 502.39 194.74 503.74 192.98 503.63Z" fill="url(#paint37_radial_78_398)"/>
<path d="M187.5 456.94C184.69 456.76 182.54 454.31 182.72 451.47C182.9 448.63 185.32 446.46 188.14 446.64C190.95 446.82 193.08 449.27 192.91 452.11C192.73 454.96 190.31 457.12 187.5 456.94Z" fill="url(#paint38_radial_78_398)"/>
<path d="M186.22 477.49C184.46 477.38 183.12 475.85 183.23 474.07C183.34 472.29 184.86 470.93 186.62 471.04C188.38 471.15 189.73 472.69 189.62 474.47C189.5 476.25 187.98 477.6 186.22 477.49Z" fill="url(#paint39_radial_78_398)"/>
<path d="M165.42 453.41C163.66 453.3 162.31 451.77 162.42 449.98C162.53 448.19 164.06 446.85 165.82 446.96C167.58 447.07 168.93 448.6 168.81 450.39C168.7 452.17 167.18 453.52 165.42 453.41Z" fill="url(#paint40_radial_78_398)"/>
<path d="M176.19 429.02C174.43 428.91 173.09 427.38 173.2 425.59C173.31 423.81 174.83 422.45 176.59 422.57C178.35 422.68 179.7 424.22 179.58 426C179.48 427.78 177.96 429.13 176.19 429.02Z" fill="url(#paint41_radial_78_398)"/>
<path d="M207.54 438.23C204.73 438.05 202.59 435.6 202.76 432.76C202.94 429.92 205.37 427.76 208.18 427.93C210.99 428.11 213.12 430.56 212.95 433.4C212.77 436.25 210.35 438.41 207.54 438.23Z" fill="url(#paint42_radial_78_398)"/>
<path d="M216.36 450.38C214.6 450.27 213.26 448.74 213.37 446.95C213.48 445.17 215 443.81 216.76 443.92C218.52 444.03 219.87 445.57 219.76 447.35C219.65 449.14 218.12 450.49 216.36 450.38Z" fill="url(#paint43_radial_78_398)"/>
<path d="M195.56 426.3C193.8 426.19 192.45 424.65 192.56 422.87C192.67 421.08 194.2 419.73 195.96 419.84C197.72 419.95 199.06 421.48 198.95 423.27C198.84 425.06 197.32 426.41 195.56 426.3Z" fill="url(#paint44_radial_78_398)"/>
<path d="M214.49 516.16C205.99 515.62 199.54 508.23 200.08 499.64C200.61 491.06 207.93 484.53 216.42 485.07C224.91 485.61 231.36 493.01 230.83 501.59C230.3 510.17 222.99 516.69 214.49 516.16Z" fill="url(#paint45_radial_78_398)"/>
<path d="M231.63 521.99C223.14 521.45 216.68 514.05 217.22 505.47C217.75 496.89 225.07 490.36 233.56 490.9C242.05 491.44 248.51 498.83 247.97 507.42C247.44 516 240.12 522.53 231.63 521.99Z" fill="url(#paint46_radial_78_398)"/>
<path d="M229.46 501.21C220.97 500.67 214.52 493.27 215.05 484.69C215.58 476.11 222.9 469.58 231.39 470.12C239.88 470.66 246.33 478.05 245.8 486.64C245.26 495.22 237.95 501.74 229.46 501.21Z" fill="url(#paint47_radial_78_398)"/>
<path d="M194.12 476.42C188.76 476.08 184.68 471.41 185.02 465.99C185.36 460.58 189.98 456.45 195.34 456.8C200.7 457.14 204.78 461.82 204.44 467.22C204.1 472.64 199.49 476.76 194.12 476.42Z" fill="url(#paint48_radial_78_398)"/>
<path d="M226.442 416.121C217.952 415.581 211.492 408.181 212.032 399.601C212.562 391.021 219.882 384.491 228.372 385.031C236.862 385.571 243.312 392.971 242.782 401.551C242.252 410.131 234.932 416.661 226.442 416.121Z" fill="url(#paint49_radial_78_398)"/>
<path d="M188.7 502.47C180.21 501.93 173.75 494.53 174.29 485.95C174.82 477.37 182.14 470.84 190.63 471.38C199.12 471.92 205.57 479.32 205.04 487.9C204.5 496.48 197.19 503 188.7 502.47Z" fill="url(#paint50_radial_78_398)"/>
<path d="M202.59 421.11C197.89 420.81 194.32 416.72 194.61 411.97C194.91 407.23 198.96 403.62 203.66 403.91C208.35 404.21 211.93 408.3 211.63 413.05C211.34 417.8 207.29 421.41 202.59 421.11Z" fill="url(#paint51_radial_78_398)"/>
<path d="M191.16 431.52C189.39 431.41 188.06 429.87 188.17 428.09C188.28 426.3 189.8 424.95 191.56 425.06C193.32 425.17 194.66 426.7 194.55 428.49C194.44 430.28 192.92 431.63 191.16 431.52Z" fill="url(#paint52_radial_78_398)"/>
<path d="M178.09 478.82C176.33 478.71 174.99 477.18 175.1 475.4C175.21 473.61 176.73 472.26 178.49 472.38C180.25 472.49 181.6 474.02 181.49 475.81C181.38 477.59 179.85 478.93 178.09 478.82Z" fill="url(#paint53_radial_78_398)"/>
</g>
<path d="M229.11 418.89C229.14 418.39 229.17 417.9 229.21 417.4C229.17 417.89 229.14 418.39 229.11 418.89Z" fill="url(#paint54_linear_78_398)"/>
<path d="M195.24 377.41C192.12 377.21 189.76 374.5 189.96 371.37C190.15 368.24 192.83 365.84 195.95 366.04C199.04 366.24 201.4 368.96 201.21 372.08C201.01 375.21 198.34 377.6 195.24 377.41Z" fill="url(#paint55_radial_78_398)"/>
<path d="M195.96 411.8C193.14 411.62 191.01 409.17 191.18 406.33C191.36 403.49 193.78 401.32 196.6 401.5C199.41 401.68 201.54 404.13 201.37 406.97C201.19 409.81 198.77 411.97 195.96 411.8Z" fill="url(#paint56_radial_78_398)"/>
<path d="M183.98 399.86C182.22 399.75 180.87 398.22 180.98 396.44C181.09 394.65 182.61 393.3 184.38 393.41C186.14 393.52 187.49 395.05 187.37 396.84C187.26 398.62 185.74 399.97 183.98 399.86Z" fill="url(#paint57_radial_78_398)"/>
<path d="M178.5 353.16C175.69 352.98 173.54 350.53 173.72 347.69C173.9 344.85 176.32 342.68 179.14 342.86C181.95 343.04 184.08 345.49 183.91 348.33C183.73 351.18 181.31 353.34 178.5 353.16Z" fill="url(#paint58_radial_78_398)"/>
<path d="M177.22 373.71C175.46 373.6 174.12 372.07 174.23 370.28C174.34 368.5 175.86 367.14 177.62 367.26C179.38 367.37 180.73 368.91 180.62 370.69C180.5 372.47 178.98 373.82 177.22 373.71Z" fill="url(#paint59_radial_78_398)"/>
<path d="M156.42 349.63C154.66 349.52 153.31 347.99 153.42 346.2C153.53 344.41 155.06 343.07 156.82 343.18C158.58 343.29 159.93 344.82 159.81 346.61C159.7 348.39 158.18 349.74 156.42 349.63Z" fill="url(#paint60_radial_78_398)"/>
<path d="M167.19 325.24C165.43 325.13 164.09 323.6 164.2 321.81C164.31 320.03 165.83 318.67 167.59 318.78C169.35 318.89 170.7 320.43 170.58 322.21C170.48 324 168.96 325.35 167.19 325.24Z" fill="url(#paint61_radial_78_398)"/>
<path d="M198.54 334.46C195.73 334.28 193.59 331.83 193.76 328.99C193.94 326.15 196.37 323.99 199.18 324.16C201.99 324.34 204.12 326.79 203.95 329.63C203.77 332.48 201.35 334.64 198.54 334.46Z" fill="url(#paint62_radial_78_398)"/>
<path d="M207.36 346.6C205.6 346.49 204.26 344.96 204.37 343.17C204.48 341.39 206 340.03 207.76 340.14C209.52 340.25 210.87 341.79 210.76 343.57C210.65 345.36 209.12 346.71 207.36 346.6Z" fill="url(#paint63_radial_78_398)"/>
<path d="M186.56 322.52C184.8 322.41 183.45 320.87 183.56 319.1C183.67 317.31 185.2 315.96 186.96 316.07C188.72 316.18 190.06 317.71 189.95 319.5C189.84 321.28 188.32 322.63 186.56 322.52Z" fill="url(#paint64_radial_78_398)"/>
<path d="M206.49 412.38C197.99 411.84 191.54 404.45 192.08 395.86C192.61 387.28 199.93 380.75 208.42 381.29C216.91 381.83 223.36 389.23 222.83 397.81C222.3 406.39 214.99 412.92 206.49 412.38Z" fill="url(#paint65_radial_78_398)"/>
<path d="M223.63 418.22C215.14 417.68 208.68 410.28 209.22 401.7C209.75 393.12 217.07 386.59 225.56 387.13C234.05 387.67 240.51 395.07 239.97 403.65C239.44 412.23 232.12 418.75 223.63 418.22Z" fill="url(#paint66_radial_78_398)"/>
<path d="M221.46 397.43C212.97 396.89 206.52 389.49 207.05 380.91C207.58 372.33 214.9 365.8 223.39 366.34C231.88 366.88 238.33 374.27 237.8 382.86C237.26 391.44 229.95 397.97 221.46 397.43Z" fill="url(#paint67_radial_78_398)"/>
<path d="M184.91 372.64C179.55 372.3 175.47 367.63 175.81 362.21C176.15 356.8 180.77 352.67 186.13 353.02C191.49 353.36 195.57 358.04 195.23 363.44C194.89 368.86 190.28 372.98 184.91 372.64Z" fill="url(#paint68_radial_78_398)"/>
<path d="M172.442 353.121C163.952 352.581 157.492 345.181 158.032 336.601C158.562 328.021 165.882 321.491 174.372 322.031C182.862 322.571 189.312 329.971 188.782 338.551C188.252 347.131 180.932 353.661 172.442 353.121Z" fill="url(#paint69_radial_78_398)"/>
<path d="M178.442 406.121C169.952 405.581 163.492 398.181 164.032 389.601C164.562 381.021 171.882 374.491 180.372 375.031C188.862 375.571 195.312 382.971 194.782 391.551C194.242 400.131 186.932 406.661 178.442 406.121Z" fill="url(#paint70_radial_78_398)"/>
<path d="M193.38 317.34C188.68 317.04 185.11 312.95 185.4 308.2C185.7 303.46 189.75 299.85 194.45 300.14C199.14 300.44 202.72 304.53 202.42 309.28C202.13 314.02 198.08 317.64 193.38 317.34Z" fill="url(#paint71_radial_78_398)"/>
<path d="M181.95 327.74C180.18 327.63 178.85 326.09 178.96 324.31C179.07 322.52 180.59 321.17 182.35 321.28C184.11 321.39 185.45 322.92 185.34 324.71C185.23 326.5 183.71 327.86 181.95 327.74Z" fill="url(#paint72_radial_78_398)"/>
<path d="M170.09 375.05C168.33 374.94 166.99 373.41 167.1 371.63C167.21 369.84 168.73 368.49 170.49 368.61C172.25 368.72 173.6 370.25 173.49 372.04C173.38 373.81 171.85 375.16 170.09 375.05Z" fill="url(#paint73_radial_78_398)"/>
<path d="M186.27 483.54L223.89 434.17L187.87 388.28L218.08 327.71" stroke="white" stroke-width="2.1268"/>
<path d="M182.52 465.19L174 476.69L179.62 489.81L188.18 478.26L182.52 465.19Z" fill="#00DDD2"/>
<path d="M202.48 479.89L188.18 478.26L179.62 489.81L193.97 491.59L202.48 479.89Z" fill="#00CCBD"/>
<path d="M196.75 466.7L182.52 465.19L188.18 478.26L202.48 479.89L196.75 466.7Z" fill="#00FFEC"/>
<path d="M209.86 436.58L219.01 447.59L233.09 445.23L223.89 434.17L209.86 436.58Z" fill="#00DDD2"/>
<path d="M228.88 420.68L223.89 434.17L233.09 445.23L238.22 431.71L228.88 420.68Z" fill="#00CCBD"/>
<path d="M214.7 423.11L209.86 436.58L223.89 434.17L228.88 420.68L214.7 423.11Z" fill="#00FFEC"/>
<path d="M193.38 375.15L179.18 376.96L173.6 390.1L187.87 388.28L193.38 375.15Z" fill="#FF277F"/>
<path d="M196.58 399.73L187.87 388.28L173.6 390.1L182.25 401.68L196.58 399.73Z" fill="#741AAC"/>
<path d="M202.14 386.47L193.38 375.15L187.87 388.28L196.58 399.73L202.14 386.47Z" fill="#C71AAC"/>
<path d="M223.59 314.58L209.39 316.39L203.81 329.53L218.08 327.71L223.59 314.58Z" fill="#009BDD"/>
<path d="M226.79 339.17L218.08 327.71L203.81 329.53L212.46 341.12L226.79 339.17Z" fill="#2B73B5"/>
<path d="M232.35 325.9L223.59 314.58L218.08 327.71L226.79 339.17L232.35 325.9Z" fill="#56ABDD"/>
<path opacity="0.2" d="M291.91 268.88C291.91 276.59 285.66 282.84 277.95 282.84C270.24 282.84 263.99 276.59 263.99 268.88C263.99 261.17 270.24 254.92 277.95 254.92C285.66 254.92 291.91 261.17 291.91 268.88Z" fill="white"/>
<path opacity="0.3" d="M287.63 268.88C287.63 274.22 283.3 278.56 277.95 278.56C272.61 278.56 268.27 274.23 268.27 268.88C268.27 263.54 272.6 259.2 277.95 259.2C283.29 259.2 287.63 263.54 287.63 268.88Z" fill="white"/>
<path d="M457.56 369.05C457.56 369.05 490.86 393.79 499.74 397.28C508.62 400.77 511.79 400.13 522.89 402.99C533.99 405.84 557.46 409.33 570.46 413.77C583.46 418.21 593.61 423.92 593.61 423.92C593.61 423.92 588.22 414.72 589.17 410.92C590.12 407.12 590.12 404.89 590.12 404.89C590.12 404.89 584.09 404.26 575.85 398.86C567.6 393.47 552.38 380.78 533.99 376.98C515.6 373.17 508.3 374.44 508.3 374.44L471.2 337.65L457.56 369.05Z" fill="url(#paint74_linear_78_398)"/>
<path d="M590.12 404.88L597.31 402.03C597.31 402.03 602.81 398.65 608.09 402.88C613.38 407.11 617.18 416.2 619.3 418.31C621.41 420.42 627.54 421.69 630.93 429.52C634.31 437.34 632.62 445.17 630.51 449.39C628.4 453.62 625.44 454.25 624.17 453.83C622.9 453.41 610.64 437.97 607.04 435.01C603.45 432.05 593.61 423.91 593.61 423.91C593.61 423.91 587.8 415.77 589.17 410.91C590.55 406.05 590.12 404.88 590.12 404.88Z" fill="#A91AAC"/>
<path d="M619.3 418.31C617.19 416.2 613.38 407.1 608.09 402.88C602.8 398.65 597.31 402.03 597.31 402.03L596.19 402.48C595.01 404.03 593.54 406.63 593.93 409.64C594.56 414.5 598.79 419.37 603.66 424.02C608.52 428.67 614.65 434.8 616.77 438.61C618.11 441.02 620.72 447.74 623.04 452.84C623.59 453.41 623.99 453.77 624.17 453.83C625.44 454.25 628.4 453.62 630.51 449.39C632.62 445.16 634.32 437.34 630.93 429.52C627.55 421.69 621.42 420.42 619.3 418.31Z" fill="black"/>
<path d="M458.62 372.22L473.84 395.69C473.84 395.69 493.5 429.1 493.29 432.69C493.08 436.28 485.68 446.01 478.91 442.63C472.14 439.25 467.49 432.27 462.84 427.41C458.19 422.55 426.9 392.95 426.9 392.95L458.62 372.22Z" fill="url(#paint75_linear_78_398)"/>
<path d="M501.54 357.42C501.54 357.42 497.52 351.45 496.73 350.02C495.94 348.59 492.45 340.98 497.52 336.86C502.59 332.74 509.41 333.85 514.17 334.48C518.93 335.11 520.83 337.18 522.26 336.38C523.69 335.59 526.07 331.62 530.51 330.99C534.95 330.36 545.57 332.1 551.44 336.86C557.31 341.62 550.49 347.48 542.08 349.23C533.68 350.97 526.06 356.68 522.73 359.06C519.4 361.44 516.12 363.34 516.12 363.34C516.12 363.34 514.8 357.63 511.15 356.52C507.51 355.41 501.54 357.42 501.54 357.42Z" fill="#A91AAC"/>
<path d="M551.43 336.86C545.56 332.1 534.94 330.36 530.5 330.99C526.06 331.62 523.68 335.59 522.25 336.38C520.82 337.17 518.92 335.11 514.16 334.48C509.4 333.85 502.58 332.74 497.51 336.86C492.44 340.98 495.92 348.59 496.72 350.02C496.8 350.16 496.91 350.35 497.04 350.57C499.61 351.1 504.5 351.94 508.29 351.61C513.68 351.13 516.85 348.44 523.2 348.76C529.05 349.05 547.73 348.66 553.56 341.38C553.83 339.86 553.22 338.31 551.43 336.86Z" fill="black"/>
<path d="M315.7 239.88C315.7 239.88 316.26 245.82 317.43 248.41C318.61 251 322.35 255.29 324.53 258.2C326.71 261.11 326.62 263.52 329.94 262.13C333.26 260.74 340.47 255.49 340.47 255.49L315.7 239.88Z" fill="url(#paint76_linear_78_398)"/>
<path d="M366.41 266.63C366.41 266.63 361.8 288.7 358.94 298.27C356.07 307.84 351.32 317.03 348.04 317.26C344.77 317.48 337.1 316.99 327.18 308.61C317.26 300.23 305.64 293.54 303.01 292.95C300.38 292.36 294.55 292.42 291.88 288.61C289.21 284.8 284.55 279.16 285.05 277.5C285.55 275.84 291.93 272.38 293.82 272.75C295.71 273.12 303.66 276.7 306.02 280.21C308.38 283.72 310.18 287.07 316.18 290.47C322.18 293.87 328.03 294.42 334.41 296.53C340.79 298.64 340.79 298.64 340.79 298.64C340.79 298.64 345.12 273.48 348.08 268.95C351.04 264.42 354.42 259.82 360.9 260.96C367.36 262.11 366.41 266.63 366.41 266.63Z" fill="url(#paint77_linear_78_398)"/>
<path d="M391.6 342.41C391.6 342.41 393.82 353.83 400.48 366.51C407.14 379.2 410.63 387.76 412.85 391.88C415.07 396 418.56 395.37 425.22 393.78C431.88 392.19 432.83 390.29 437.59 388.71C442.35 387.12 454.4 383 457.57 375.07C460.74 367.14 460.11 363.02 463.6 360.16C467.09 357.31 469.94 351.6 471.21 344.3C472.48 337.01 473.75 330.03 473.11 325.27C472.48 320.51 468.04 316.71 468.04 316.71C468.04 316.71 462.01 318.3 452.18 312.9C442.35 307.51 436.32 307.83 429.03 306.56C421.74 305.29 414.44 305.29 414.44 305.29" fill="url(#paint78_linear_78_398)"/>
<path d="M345.51 267.35C345.51 267.35 341.92 284.05 343.4 289.76C344.88 295.47 347.63 307.1 353.34 308.79C359.05 310.48 364.97 309 364.97 309C364.97 309 377.44 321.9 382.73 329.93C388.02 337.96 391.61 342.4 391.61 342.4C391.61 342.4 398.59 344.3 405.56 333.31C412.54 322.32 416.77 305.61 412.96 302.44C409.15 299.27 407.89 299.27 405.77 297.15C403.66 295.04 371.73 269.88 371.73 269.88L345.51 267.35Z" fill="url(#paint79_linear_78_398)"/>
<path d="M356.91 275.85C356.91 275.85 380.91 282.19 391.27 285.89C401.62 289.59 411.46 295.35 411.52 298.97C411.58 302.58 410.59 310.99 400.8 321.41C391.01 331.83 382.99 344.23 382.19 347.09C381.39 349.95 381.12 356.36 376.78 359.08C372.44 361.79 365.79 363.46 363.99 362.82C362.2 362.18 358.94 358.1 359.46 356.04C359.97 353.98 364.37 345.45 368.37 343.06C372.37 340.67 376.15 338.88 380.23 332.48C384.31 326.08 385.25 319.68 387.94 312.78C390.63 305.88 390.63 305.88 390.63 305.88C390.63 305.88 363.21 299.67 358.41 296.16C353.6 292.65 348.74 288.66 350.36 281.61C351.99 274.54 356.91 275.85 356.91 275.85Z" fill="url(#paint80_linear_78_398)"/>
<path d="M477.65 441.99C477.65 441.99 469.19 429.94 469.83 417.25C470.46 404.56 471.94 396.95 475.96 391.03C479.98 385.11 490.13 375.81 495.62 367.99C501.12 360.17 501.54 357.42 501.54 357.42C501.54 357.42 508.73 355.09 512.53 357.42C516.34 359.75 516.12 363.34 516.12 363.34C516.12 363.34 501.11 398.65 497.94 409.22C494.77 419.79 494.34 430.15 493.29 433.53C492.24 436.91 486.95 446.64 477.65 441.99Z" fill="url(#paint81_linear_78_398)"/>
<path d="M306.4 293.78C306.4 293.78 303.01 292.94 300.06 292.51C297.11 292.08 294.77 291.24 292.66 290.4C290.55 289.55 289.28 295.05 287.59 295.47C285.9 295.89 286.32 291.88 286.74 290.4C287.16 288.92 290.55 285.11 292.66 282.15C294.77 279.19 291.6 276.23 291.6 276.23C291.6 276.23 280.18 271.16 279.13 269.04C278.07 266.93 281.03 267.14 288.01 269.67C294.99 272.21 299.85 274.74 299.85 274.74C299.85 274.74 304.16 276.99 306.02 280.2" fill="white"/>
<path d="M316 196.61C316 196.61 328.53 184.72 347.74 193.03C363.83 199.99 364.01 209.94 374 216.88C380.88 221.66 401.38 232.66 422.38 228.33C443.38 224.01 464.14 230.92 479.58 250.45C495.01 269.98 499.79 281.14 499.79 281.14C499.79 281.14 474.47 278.1 457.43 292C440.38 305.89 402.57 305.55 381.49 297.54C360.41 289.53 346.85 274.58 342.94 268.02C339.03 261.46 336.24 255.58 329.47 252.77C322.71 249.96 304.64 235.59 305.15 222.44C305.65 209.31 308.27 203.15 316 196.61Z" fill="url(#paint82_linear_78_398)"/>
<path opacity="0.3" d="M422.38 228.34C401.38 232.66 380.88 221.66 374 216.89C364 209.95 363.82 200 347.74 193.04C328.66 184.79 316.18 196.45 316.01 196.61C335.24 189.61 344.02 196.02 353.51 207.87C369.49 227.85 385.46 247.06 408.88 245.55C426.58 244.41 447.13 239.84 461.4 249.55C475.67 259.25 480.81 267.25 480.81 267.25C480.81 267.25 460.26 256.4 438 257.55C415.74 258.69 394.62 255.84 379.77 246.7C364.93 237.57 355.22 222.72 355.22 222.72C355.22 222.72 361.65 263.3 414.59 264.39C469.96 265.53 464.82 269.53 478.71 282.39C490.12 279.99 499.8 281.15 499.8 281.15C499.8 281.15 495.02 269.99 479.59 250.46C464.14 230.93 443.38 224.01 422.38 228.34Z" fill="url(#paint83_linear_78_398)"/>
<g opacity="0.5">
<path d="M630.42 304.41C628.66 304.3 627.31 302.77 627.42 300.98C627.53 299.19 629.06 297.85 630.82 297.96C632.58 298.07 633.93 299.6 633.81 301.39C633.7 303.17 632.18 304.52 630.42 304.41Z" fill="url(#paint84_radial_78_398)"/>
<path d="M641.19 280.02C639.43 279.91 638.09 278.38 638.2 276.59C638.31 274.81 639.83 273.45 641.59 273.57C643.35 273.68 644.7 275.22 644.58 277C644.48 278.78 642.96 280.13 641.19 280.02Z" fill="url(#paint85_radial_78_398)"/>
<path d="M653.7 353.47C645.21 352.93 638.75 345.53 639.29 336.95C639.82 328.37 647.14 321.84 655.63 322.38C664.12 322.92 670.57 330.32 670.04 338.9C669.5 347.48 662.19 354 653.7 353.47Z" fill="url(#paint86_radial_78_398)"/>
<path d="M643.09 329.82C641.33 329.71 639.99 328.18 640.1 326.4C640.21 324.61 641.73 323.26 643.49 323.38C645.25 323.49 646.6 325.02 646.49 326.81C646.38 328.59 644.85 329.93 643.09 329.82Z" fill="url(#paint87_radial_78_398)"/>
</g>
<path d="M644.5 198.16C641.69 197.98 639.54 195.53 639.72 192.69C639.9 189.85 642.32 187.68 645.14 187.86C647.95 188.04 650.08 190.49 649.91 193.33C649.73 196.18 647.31 198.34 644.5 198.16Z" fill="url(#paint88_radial_78_398)"/>
<path d="M643.22 218.71C641.46 218.6 640.12 217.07 640.23 215.28C640.34 213.5 641.86 212.14 643.62 212.26C645.38 212.37 646.73 213.91 646.62 215.69C646.5 217.47 644.98 218.82 643.22 218.71Z" fill="url(#paint89_radial_78_398)"/>
<path d="M622.42 194.63C620.66 194.52 619.31 192.99 619.42 191.2C619.53 189.41 621.06 188.07 622.82 188.18C624.58 188.29 625.93 189.82 625.81 191.61C625.7 193.39 624.18 194.74 622.42 194.63Z" fill="url(#paint90_radial_78_398)"/>
<path d="M633.19 170.24C631.43 170.13 630.09 168.6 630.2 166.81C630.31 165.03 631.83 163.67 633.59 163.78C635.35 163.89 636.7 165.43 636.58 167.21C636.48 169 634.96 170.35 633.19 170.24Z" fill="url(#paint91_radial_78_398)"/>
<path d="M650.91 217.64C645.55 217.3 641.47 212.63 641.81 207.21C642.15 201.8 646.77 197.67 652.13 198.02C657.49 198.36 661.57 203.04 661.23 208.44C660.89 213.86 656.28 217.98 650.91 217.64Z" fill="url(#paint92_radial_78_398)"/>
<path d="M638.442 198.121C629.952 197.581 623.492 190.181 624.032 181.601C624.562 173.021 631.882 166.491 640.372 167.031C648.862 167.571 655.312 174.971 654.782 183.551C654.252 192.131 646.932 198.661 638.442 198.121Z" fill="url(#paint93_radial_78_398)"/>
<path d="M644.442 251.121C635.952 250.581 629.492 243.181 630.032 234.601C630.562 226.021 637.882 219.491 646.372 220.031C654.862 220.571 661.312 227.971 660.782 236.551C660.242 245.131 652.932 251.661 644.442 251.121Z" fill="url(#paint94_radial_78_398)"/>
<path d="M636.09 220.05C634.33 219.94 632.99 218.41 633.1 216.63C633.21 214.84 634.73 213.49 636.49 213.61C638.25 213.72 639.6 215.25 639.49 217.04C639.38 218.81 637.85 220.16 636.09 220.05Z" fill="url(#paint95_radial_78_398)"/>
<path d="M643.88 311.64L635.35 323.14L640.98 336.26L649.54 324.7L643.88 311.64Z" fill="#00DDD2"/>
<path d="M663.83 326.34L649.54 324.7L640.98 336.26L655.33 338.03L663.83 326.34Z" fill="#00CCBD"/>
<path d="M654.74 221.6L640.54 223.41L634.96 236.55L649.23 234.73L654.74 221.6Z" fill="#D9007F"/>
<path d="M657.94 246.18L649.23 234.73L634.96 236.55L643.61 248.13L657.94 246.18Z" fill="#AC006B"/>
</g>
<defs>
<linearGradient id="paint0_linear_78_398" x1="232.849" y1="154.727" x2="471.9" y2="497.714" gradientUnits="userSpaceOnUse">
<stop stop-color="#270036"/>
<stop offset="0.5936" stop-color="#4F008B"/>
<stop offset="1" stop-color="#4C24B1"/>
</linearGradient>
<radialGradient id="paint1_radial_78_398" cx="0" cy="0" r="1" gradientUnits="userSpaceOnUse" gradientTransform="translate(357.487 336.881) scale(206.646 206.646)">
<stop stop-color="#3E82BF"/>
<stop offset="1" stop-color="#3E82BF" stop-opacity="0"/>
</radialGradient>
<linearGradient id="paint2_linear_78_398" x1="514.727" y1="347.584" x2="537.108" y2="381.248" gradientUnits="userSpaceOnUse">
<stop stop-color="#270036"/>
<stop offset="0.5936" stop-color="#4F008B"/>
<stop offset="1" stop-color="#4C24B1"/>
</linearGradient>
<linearGradient id="paint3_linear_78_398" x1="520.309" y1="367.376" x2="539.814" y2="389.758" gradientUnits="userSpaceOnUse">
<stop stop-color="#270036"/>
<stop offset="0.5936" stop-color="#4F008B"/>
<stop offset="1" stop-color="#4C24B1"/>
</linearGradient>
<linearGradient id="paint4_linear_78_398" x1="455.939" y1="329.261" x2="570.743" y2="329.261" gradientUnits="userSpaceOnUse">
<stop stop-color="#B208AB"/>
<stop offset="1" stop-color="#4E0D98"/>
</linearGradient>
<linearGradient id="paint5_linear_78_398" x1="446.419" y1="302.971" x2="468.803" y2="342.468" gradientUnits="userSpaceOnUse">
<stop stop-color="#270036"/>
<stop offset="0.5936" stop-color="#4F008B"/>
<stop offset="1" stop-color="#4C24B1"/>
</linearGradient>
<linearGradient id="paint6_linear_78_398" x1="557.017" y1="380.357" x2="590.241" y2="407.979" gradientUnits="userSpaceOnUse">
<stop stop-color="#270036"/>
<stop offset="0.5936" stop-color="#4F008B"/>
<stop offset="1" stop-color="#4C24B1"/>
</linearGradient>
<linearGradient id="paint7_linear_78_398" x1="232.617" y1="362.783" x2="300.537" y2="362.783" gradientUnits="userSpaceOnUse">
<stop stop-color="#3F499C"/>
<stop offset="1" stop-color="#C619BB"/>
</linearGradient>
<linearGradient id="paint8_linear_78_398" x1="227.395" y1="374.134" x2="294.82" y2="374.134" gradientUnits="userSpaceOnUse">
<stop stop-color="#3F499C"/>
<stop offset="1" stop-color="#C619BB"/>
</linearGradient>
<linearGradient id="paint9_linear_78_398" x1="161.296" y1="384.513" x2="269.393" y2="384.513" gradientUnits="userSpaceOnUse">
<stop stop-color="#3F499C"/>
<stop offset="1" stop-color="#C619BB"/>
</linearGradient>
<linearGradient id="paint10_linear_78_398" x1="224.551" y1="329.373" x2="339.789" y2="329.373" gradientUnits="userSpaceOnUse">
<stop stop-color="#3F499C"/>
<stop offset="1" stop-color="#C619BB"/>
</linearGradient>
<linearGradient id="paint11_linear_78_398" x1="308.998" y1="323.448" x2="365.755" y2="323.448" gradientUnits="userSpaceOnUse">
<stop stop-color="#3F499C"/>
<stop offset="1" stop-color="#C619BB"/>
</linearGradient>
<linearGradient id="paint12_linear_78_398" x1="232.404" y1="486.425" x2="300.55" y2="486.425" gradientUnits="userSpaceOnUse">
<stop stop-color="#4D1AA6"/>
<stop offset="1" stop-color="#E42D97"/>
</linearGradient>
<linearGradient id="paint13_linear_78_398" x1="227.174" y1="475.049" x2="294.823" y2="475.049" gradientUnits="userSpaceOnUse">
<stop stop-color="#4D1AA6"/>
<stop offset="1" stop-color="#E42D97"/>
</linearGradient>
<linearGradient id="paint14_linear_78_398" x1="224.173" y1="519.827" x2="339.795" y2="519.827" gradientUnits="userSpaceOnUse">
<stop stop-color="#4D1AA6"/>
<stop offset="1" stop-color="#E42D97"/>
</linearGradient>
<linearGradient id="paint15_linear_78_398" x1="308.812" y1="525.745" x2="365.758" y2="525.745" gradientUnits="userSpaceOnUse">
<stop stop-color="#4D1AA6"/>
<stop offset="1" stop-color="#E42D97"/>
</linearGradient>
<linearGradient id="paint16_linear_78_398" x1="160.932" y1="464.665" x2="269.388" y2="464.665" gradientUnits="userSpaceOnUse">
<stop stop-color="#4D1AA6"/>
<stop offset="1" stop-color="#E42D97"/>
</linearGradient>
<linearGradient id="paint17_linear_78_398" x1="502.154" y1="474.937" x2="568.85" y2="474.937" gradientUnits="userSpaceOnUse">
<stop stop-color="#B32AFF"/>
<stop offset="1" stop-color="#4C24B1"/>
</linearGradient>
<linearGradient id="paint18_linear_78_398" x1="496.452" y1="486.298" x2="563.637" y2="486.298" gradientUnits="userSpaceOnUse">
<stop stop-color="#B32AFF"/>
<stop offset="1" stop-color="#4C24B1"/>
</linearGradient>
<linearGradient id="paint19_linear_78_398" x1="527.926" y1="464.552" x2="634.853" y2="464.552" gradientUnits="userSpaceOnUse">
<stop stop-color="#B32AFF"/>
<stop offset="1" stop-color="#4C24B1"/>
</linearGradient>
<linearGradient id="paint20_linear_78_398" x1="431.132" y1="525.617" x2="487.265" y2="525.617" gradientUnits="userSpaceOnUse">
<stop stop-color="#B32AFF"/>
<stop offset="1" stop-color="#4C24B1"/>
</linearGradient>
<linearGradient id="paint21_linear_78_398" x1="457.578" y1="519.698" x2="571.57" y2="519.698" gradientUnits="userSpaceOnUse">
<stop stop-color="#B32AFF"/>
<stop offset="1" stop-color="#4C24B1"/>
</linearGradient>
<linearGradient id="paint22_linear_78_398" x1="86.959" y1="233.658" x2="618.943" y2="233.658" gradientUnits="userSpaceOnUse">
<stop stop-color="#A1BAFF"/>
<stop offset="0.4332" stop-color="white"/>
</linearGradient>
<linearGradient id="paint23_linear_78_398" x1="90.6799" y1="301.568" x2="610.323" y2="301.568" gradientUnits="userSpaceOnUse">
<stop stop-color="#3133AB"/>
<stop offset="0.1825" stop-color="#2E38B0"/>
<stop offset="0.4069" stop-color="#2647BD"/>
<stop offset="0.6533" stop-color="#1960D4"/>
<stop offset="0.9137" stop-color="#0783F3"/>
<stop offset="1" stop-color="#0090FF"/>
</linearGradient>
<linearGradient id="paint24_linear_78_398" x1="136.508" y1="306.396" x2="136.508" y2="398.016" gradientUnits="userSpaceOnUse">
<stop stop-color="#311341"/>
<stop offset="0.2299" stop-color="#3113C2"/>
<stop offset="0.3479" stop-color="#2F18C5"/>
<stop offset="0.4931" stop-color="#2927CC"/>
<stop offset="0.6524" stop-color="#1F40D8"/>
<stop offset="0.8219" stop-color="#1263E9"/>
<stop offset="0.9978" stop-color="#008FFF"/>
<stop offset="1" stop-color="#0090FF"/>
</linearGradient>
<linearGradient id="paint25_linear_78_398" x1="85.4703" y1="397.322" x2="161.101" y2="397.322" gradientUnits="userSpaceOnUse">
<stop stop-color="#7633FF"/>
<stop offset="0.1585" stop-color="#7137FF"/>
<stop offset="0.3535" stop-color="#6243FF"/>
<stop offset="0.5676" stop-color="#4957FF"/>
<stop offset="0.7937" stop-color="#2672FF"/>
<stop offset="1" stop-color="#0090FF"/>
</linearGradient>
<linearGradient id="paint26_linear_78_398" x1="87.2126" y1="295.822" x2="161.101" y2="295.822" gradientUnits="userSpaceOnUse">
<stop stop-color="#A1BAFF"/>
<stop offset="0.4332" stop-color="white"/>
</linearGradient>
<linearGradient id="paint27_linear_78_398" x1="157.32" y1="347.156" x2="157.32" y2="529.455" gradientUnits="userSpaceOnUse">
<stop stop-color="#A1BAFF"/>
<stop offset="0.4332" stop-color="white"/>
</linearGradient>
<linearGradient id="paint28_linear_78_398" x1="614.626" y1="181.285" x2="619.951" y2="403.027" gradientUnits="userSpaceOnUse">
<stop stop-color="#A1BAFF"/>
<stop offset="0.4332" stop-color="white"/>
</linearGradient>
<linearGradient id="paint29_linear_78_398" x1="604.911" y1="43.2631" x2="591.105" y2="111.909" gradientUnits="userSpaceOnUse">
<stop stop-color="#88CFDA"/>
<stop offset="0.00834131" stop-color="#89CFD9"/>
<stop offset="0.4784" stop-color="#C8D9BB"/>
<stop offset="0.8218" stop-color="#F0DFA7"/>
<stop offset="1" stop-color="#FFE1A0"/>
</linearGradient>
<linearGradient id="paint30_linear_78_398" x1="254.745" y1="74.2923" x2="279.862" y2="74.2923" gradientUnits="userSpaceOnUse">
<stop stop-color="#7633FF"/>
<stop offset="0.1585" stop-color="#7137FF"/>
<stop offset="0.3535" stop-color="#6243FF"/>
<stop offset="0.5676" stop-color="#4957FF"/>
<stop offset="0.7937" stop-color="#2672FF"/>
<stop offset="1" stop-color="#0090FF"/>
</linearGradient>
<linearGradient id="paint31_linear_78_398" x1="56.2395" y1="200.906" x2="75.0773" y2="200.906" gradientUnits="userSpaceOnUse">
<stop stop-color="#7633FF"/>
<stop offset="0.1585" stop-color="#7137FF"/>
<stop offset="0.3535" stop-color="#6243FF"/>
<stop offset="0.5676" stop-color="#4957FF"/>
<stop offset="0.7937" stop-color="#2672FF"/>
<stop offset="1" stop-color="#0090FF"/>
</linearGradient>
<linearGradient id="paint32_linear_78_398" x1="667.088" y1="404.761" x2="667.088" y2="82.8923" gradientUnits="userSpaceOnUse">
<stop stop-color="#9311FF"/>
<stop offset="1" stop-color="#330050" stop-opacity="0"/>
</linearGradient>
<linearGradient id="paint33_linear_78_398" x1="202.728" y1="558.133" x2="202.728" y2="58.686" gradientUnits="userSpaceOnUse">
<stop stop-color="#9311FF"/>
<stop offset="1" stop-color="#330050" stop-opacity="0"/>
</linearGradient>
<linearGradient id="paint34_linear_78_398" x1="238.16" y1="521.917" x2="238.16" y2="521.917" gradientUnits="userSpaceOnUse">
<stop stop-color="white"/>
<stop offset="0.2552" stop-color="#FFFFFD"/>
<stop offset="0.3925" stop-color="#FFFDF5"/>
<stop offset="0.5018" stop-color="#FFFBE7"/>
<stop offset="0.5963" stop-color="#FFF7D4"/>
<stop offset="0.6814" stop-color="#FFF2BB"/>
<stop offset="0.7596" stop-color="#FFEC9C"/>
<stop offset="0.8326" stop-color="#FFE577"/>
<stop offset="0.9015" stop-color="#FFDD4C"/>
<stop offset="0.9647" stop-color="#FFD51E"/>
<stop offset="1" stop-color="#FFCF00"/>
</linearGradient>
<radialGradient id="paint35_radial_78_398" cx="0" cy="0" r="1" gradientUnits="userSpaceOnUse" gradientTransform="translate(103.261 457.602) rotate(93.5931) scale(4.79276 4.89563)">
<stop stop-color="#FF0091"/>
<stop offset="0.144267" stop-color="#FF17A8"/>
<stop offset="0.23997" stop-color="#B200FF"/>
<stop offset="1" stop-color="#FF09A0" stop-opacity="0"/>
</radialGradient>
<radialGradient id="paint36_radial_78_398" cx="0" cy="0" r="1" gradientUnits="userSpaceOnUse" gradientTransform="translate(68.4367 456.143) rotate(93.5931) scale(4.34058 4.43588)">
<stop stop-color="#FF0091"/>
<stop offset="0.144267" stop-color="#FF17A8"/>
<stop offset="0.23997" stop-color="#B200FF"/>
<stop offset="1" stop-color="#FF09A0" stop-opacity="0"/>
</radialGradient>
<radialGradient id="paint37_radial_78_398" cx="0" cy="0" r="1" gradientUnits="userSpaceOnUse" gradientTransform="translate(79.4537 444.882) rotate(93.5931) scale(2.72267 2.77274)">
<stop stop-color="#FF0091"/>
<stop offset="0.144267" stop-color="#FF17A8"/>
<stop offset="0.23997" stop-color="#B200FF"/>
<stop offset="1" stop-color="#FF09A0" stop-opacity="0"/>
</radialGradient>
<radialGradient id="paint38_radial_78_398" cx="0" cy="0" r="1" gradientUnits="userSpaceOnUse" gradientTransform="translate(128.036 442.502) rotate(93.5931) scale(4.34102 4.43544)">
<stop stop-color="#FF0091"/>
<stop offset="0.144267" stop-color="#FF17A8"/>
<stop offset="0.23997" stop-color="#B200FF"/>
<stop offset="1" stop-color="#FF09A0" stop-opacity="0"/>
</radialGradient>
<radialGradient id="paint39_radial_78_398" cx="0" cy="0" r="1" gradientUnits="userSpaceOnUse" gradientTransform="translate(106.359 439.791) rotate(93.5871) scale(3.20236 3.26234)">
<stop stop-color="#D6D5D5"/>
<stop offset="0.043" stop-color="#B7B5B5"/>
<stop offset="0.1242" stop-color="#817E7E"/>
<stop offset="0.1997" stop-color="#575253"/>
<stop offset="0.2672" stop-color="#383334"/>
<stop offset="0.3241" stop-color="#262021"/>
<stop offset="0.3636" stop-color="#1F191A"/>
<stop offset="0.994"/>
</radialGradient>
<radialGradient id="paint40_radial_78_398" cx="0" cy="0" r="1" gradientUnits="userSpaceOnUse" gradientTransform="translate(131.288 420.716) rotate(93.5931) scale(2.72267 2.77278)">
<stop stop-color="#FF0091"/>
<stop offset="0.144267" stop-color="#FF17A8"/>
<stop offset="0.23997" stop-color="#B200FF"/>
<stop offset="1" stop-color="#FF09A0" stop-opacity="0"/>
</radialGradient>
<radialGradient id="paint41_radial_78_398" cx="0" cy="0" r="1" gradientUnits="userSpaceOnUse" gradientTransform="translate(154.964 432.851) rotate(93.5931) scale(2.71843 2.77797)">
<stop stop-color="#FF0091"/>
<stop offset="0.144267" stop-color="#FF17A8"/>
<stop offset="0.23997" stop-color="#B200FF"/>
<stop offset="1" stop-color="#FF09A0" stop-opacity="0"/>
</radialGradient>
<radialGradient id="paint42_radial_78_398" cx="0" cy="0" r="1" gradientUnits="userSpaceOnUse" gradientTransform="translate(145.467 463.437) rotate(93.5931) scale(4.34056 4.435)">
<stop stop-color="#FF0091"/>
<stop offset="0.144267" stop-color="#FF17A8"/>
<stop offset="0.23997" stop-color="#B200FF"/>
<stop offset="1" stop-color="#FF09A0" stop-opacity="0"/>
</radialGradient>
<radialGradient id="paint43_radial_78_398" cx="0" cy="0" r="1" gradientUnits="userSpaceOnUse" gradientTransform="translate(131.158 471.205) rotate(93.5931) scale(2.7222 2.78174)">
<stop stop-color="#FF0091"/>
<stop offset="0.144267" stop-color="#FF17A8"/>
<stop offset="0.23997" stop-color="#B200FF"/>
<stop offset="1" stop-color="#FF09A0" stop-opacity="0"/>
</radialGradient>
<radialGradient id="paint44_radial_78_398" cx="0" cy="0" r="1" gradientUnits="userSpaceOnUse" gradientTransform="translate(156.482 452.136) rotate(93.5931) scale(2.7222 2.78177)">
<stop stop-color="#FF0091"/>
<stop offset="0.144267" stop-color="#FF17A8"/>
<stop offset="0.23997" stop-color="#B200FF"/>
<stop offset="1" stop-color="#FF09A0" stop-opacity="0"/>
</radialGradient>
<radialGradient id="paint45_radial_78_398" cx="0" cy="0" r="1" gradientUnits="userSpaceOnUse" gradientTransform="translate(42.1788 430.522) rotate(93.5931) scale(13.1004 13.3894)">
<stop stop-color="#FF0091"/>
<stop offset="0.144267" stop-color="#FF17A8"/>
<stop offset="0.23997" stop-color="#B200FF"/>
<stop offset="1" stop-color="#FF09A0" stop-opacity="0"/>
</radialGradient>
<radialGradient id="paint46_radial_78_398" cx="0" cy="0" r="1" gradientUnits="userSpaceOnUse" gradientTransform="translate(35.2969 447.086) rotate(93.5931) scale(13.1008 13.3899)">
<stop stop-color="#FF0091"/>
<stop offset="0.144267" stop-color="#FF17A8"/>
<stop offset="0.23997" stop-color="#B200FF"/>
<stop offset="1" stop-color="#FF09A0" stop-opacity="0"/>
</radialGradient>
<radialGradient id="paint47_radial_78_398" cx="0" cy="0" r="1" gradientUnits="userSpaceOnUse" gradientTransform="translate(56.1721 446.216) rotate(93.5931) scale(11.8915 12.1547)">
<stop stop-color="#FF0091"/>
<stop offset="0.144267" stop-color="#FF17A8"/>
<stop offset="0.291068" stop-color="#B200FF"/>
<stop offset="1" stop-color="white" stop-opacity="0"/>
</radialGradient>
<radialGradient id="paint48_radial_78_398" cx="0" cy="0" r="1" gradientUnits="userSpaceOnUse" gradientTransform="translate(78.2179 412.264) rotate(93.5931) scale(8.27366 8.44455)">
<stop stop-color="#FF0091"/>
<stop offset="0.144267" stop-color="#FF17A8"/>
<stop offset="0.23997" stop-color="#B200FF"/>
<stop offset="1" stop-color="#FF09A0" stop-opacity="0"/>
</radialGradient>
<radialGradient id="paint49_radial_78_398" cx="0" cy="0" r="1" gradientUnits="userSpaceOnUse" gradientTransform="translate(141.284 448.452) rotate(93.5931) scale(13.1004 13.3903)">
<stop stop-color="#FF0091"/>
<stop offset="0.144267" stop-color="#FF17A8"/>
<stop offset="0.23997" stop-color="#B200FF"/>
<stop offset="1" stop-color="#FF09A0" stop-opacity="0"/>
</radialGradient>
<radialGradient id="paint50_radial_78_398" cx="0" cy="0" r="1" gradientUnits="userSpaceOnUse" gradientTransform="translate(57.4412 405.901) rotate(93.5931) scale(13.1004 13.3894)">
<stop stop-color="#FF0091"/>
<stop offset="0.144267" stop-color="#FF17A8"/>
<stop offset="0.23997" stop-color="#B200FF"/>
<stop offset="1" stop-color="#FF09A0" stop-opacity="0"/>
</radialGradient>
<radialGradient id="paint51_radial_78_398" cx="0" cy="0" r="1" gradientUnits="userSpaceOnUse" gradientTransform="translate(131.865 423.889) rotate(93.5931) scale(7.25089 7.4039)">
<stop stop-color="#FF0091"/>
<stop offset="0.144267" stop-color="#FF17A8"/>
<stop offset="0.23997" stop-color="#B200FF"/>
<stop offset="1" stop-color="#FF09A0" stop-opacity="0"/>
</radialGradient>
<radialGradient id="paint52_radial_78_398" cx="0" cy="0" r="1" gradientUnits="userSpaceOnUse" gradientTransform="translate(117.612 411.356) rotate(93.5931) scale(2.71798 2.78605)">
<stop stop-color="#FF0091"/>
<stop offset="0.144267" stop-color="#FF17A8"/>
<stop offset="0.23997" stop-color="#B200FF"/>
<stop offset="1" stop-color="#FF09A0" stop-opacity="0"/>
</radialGradient>
<radialGradient id="paint53_radial_78_398" cx="0" cy="0" r="1" gradientUnits="userSpaceOnUse" gradientTransform="translate(71.201 395.604) rotate(93.5931) scale(2.7222 2.76569)">
<stop stop-color="#FF0091"/>
<stop offset="0.144267" stop-color="#FF17A8"/>
<stop offset="0.23997" stop-color="#B200FF"/>
<stop offset="1" stop-color="#FF09A0" stop-opacity="0"/>
</radialGradient>
<linearGradient id="paint54_linear_78_398" x1="229.16" y1="418.141" x2="229.16" y2="418.141" gradientUnits="userSpaceOnUse">
<stop stop-color="white"/>
<stop offset="0.2552" stop-color="#FFFFFD"/>
<stop offset="0.3925" stop-color="#FFFDF5"/>
<stop offset="0.5018" stop-color="#FFFBE7"/>
<stop offset="0.5963" stop-color="#FFF7D4"/>
<stop offset="0.6814" stop-color="#FFF2BB"/>
<stop offset="0.7596" stop-color="#FFEC9C"/>
<stop offset="0.8326" stop-color="#FFE577"/>
<stop offset="0.9015" stop-color="#FFDD4C"/>
<stop offset="0.9647" stop-color="#FFD51E"/>
<stop offset="1" stop-color="#FFCF00"/>
</linearGradient>
<radialGradient id="paint55_radial_78_398" cx="0" cy="0" r="1" gradientUnits="userSpaceOnUse" gradientTransform="translate(95.0295 354.652) rotate(93.5931) scale(4.79276 4.89468)">
<stop stop-color="#FF0091"/>
<stop offset="0.144267" stop-color="#FF17A8"/>
<stop offset="0.23997" stop-color="#B200FF"/>
<stop offset="1" stop-color="#FF09A0" stop-opacity="0"/>
</radialGradient>
<radialGradient id="paint56_radial_78_398" cx="0" cy="0" r="1" gradientUnits="userSpaceOnUse" gradientTransform="translate(60.2056 353.193) rotate(93.5931) scale(4.34058 4.43494)">
<stop stop-color="#FF0091"/>
<stop offset="0.144267" stop-color="#FF17A8"/>
<stop offset="0.23997" stop-color="#B200FF"/>
<stop offset="1" stop-color="#FF09A0" stop-opacity="0"/>
</radialGradient>
<radialGradient id="paint57_radial_78_398" cx="0" cy="0" r="1" gradientUnits="userSpaceOnUse" gradientTransform="translate(71.2222 341.929) rotate(93.5931) scale(2.72267 2.77274)">
<stop stop-color="#FF0091"/>
<stop offset="0.144267" stop-color="#FF17A8"/>
<stop offset="0.23997" stop-color="#B200FF"/>
<stop offset="1" stop-color="#FF09A0" stop-opacity="0"/>
</radialGradient>
<radialGradient id="paint58_radial_78_398" cx="0" cy="0" r="1" gradientUnits="userSpaceOnUse" gradientTransform="translate(119.815 339.55) rotate(93.5931) scale(4.34102 4.43544)">
<stop stop-color="#FF0091"/>
<stop offset="0.144267" stop-color="#FF17A8"/>
<stop offset="0.23997" stop-color="#B200FF"/>
<stop offset="1" stop-color="#FF09A0" stop-opacity="0"/>
</radialGradient>
<radialGradient id="paint59_radial_78_398" cx="0" cy="0" r="1" gradientUnits="userSpaceOnUse" gradientTransform="translate(97.7419 336.856) rotate(93.5931) scale(2.7222 2.77416)">
<stop stop-color="#FF0091"/>
<stop offset="0.144267" stop-color="#FF17A8"/>
<stop offset="0.23997" stop-color="#B200FF"/>
<stop offset="1" stop-color="#FF09A0" stop-opacity="0"/>
</radialGradient>
<radialGradient id="paint60_radial_78_398" cx="0" cy="0" r="1" gradientUnits="userSpaceOnUse" gradientTransform="translate(123.067 317.764) rotate(93.5931) scale(2.72267 2.77278)">
<stop stop-color="#FF0091"/>
<stop offset="0.144267" stop-color="#FF17A8"/>
<stop offset="0.23997" stop-color="#B200FF"/>
<stop offset="1" stop-color="#FF09A0" stop-opacity="0"/>
</radialGradient>
<radialGradient id="paint61_radial_78_398" cx="0" cy="0" r="1" gradientUnits="userSpaceOnUse" gradientTransform="translate(146.747 329.881) rotate(93.5931) scale(2.71843 2.78556)">
<stop stop-color="#FF0091"/>
<stop offset="0.144267" stop-color="#FF17A8"/>
<stop offset="0.23997" stop-color="#B200FF"/>
<stop offset="1" stop-color="#FF09A0" stop-opacity="0"/>
</radialGradient>
<radialGradient id="paint62_radial_78_398" cx="0" cy="0" r="1" gradientUnits="userSpaceOnUse" gradientTransform="translate(137.236 360.484) rotate(93.5931) scale(4.34056 4.435)">
<stop stop-color="#FF0091"/>
<stop offset="0.144267" stop-color="#FF17A8"/>
<stop offset="0.23997" stop-color="#B200FF"/>
<stop offset="1" stop-color="#FF09A0" stop-opacity="0"/>
</radialGradient>
<radialGradient id="paint63_radial_78_398" cx="0" cy="0" r="1" gradientUnits="userSpaceOnUse" gradientTransform="translate(122.937 368.253) rotate(93.5931) scale(2.7222 2.78174)">
<stop stop-color="#FF0091"/>
<stop offset="0.144267" stop-color="#FF17A8"/>
<stop offset="0.23997" stop-color="#B200FF"/>
<stop offset="1" stop-color="#FF09A0" stop-opacity="0"/>
</radialGradient>
<radialGradient id="paint64_radial_78_398" cx="0" cy="0" r="1" gradientUnits="userSpaceOnUse" gradientTransform="translate(148.253 349.234) rotate(93.5931) scale(2.7222 2.77322)">
<stop stop-color="#FF0091"/>
<stop offset="0.144267" stop-color="#FF17A8"/>
<stop offset="0.23997" stop-color="#B200FF"/>
<stop offset="1" stop-color="#FF09A0" stop-opacity="0"/>
</radialGradient>
<radialGradient id="paint65_radial_78_398" cx="0" cy="0" r="1" gradientUnits="userSpaceOnUse" gradientTransform="translate(51.8602 347.659) rotate(93.5931) scale(13.1004 13.3903)">
<stop stop-color="#FF0091"/>
<stop offset="0.144267" stop-color="#FF17A8"/>
<stop offset="0.23997" stop-color="#B200FF"/>
<stop offset="1" stop-color="#FF09A0" stop-opacity="0"/>
</radialGradient>
<radialGradient id="paint66_radial_78_398" cx="0" cy="0" r="1" gradientUnits="userSpaceOnUse" gradientTransform="translate(44.9693 364.226) rotate(93.5931) scale(13.1008 13.389)">
<stop stop-color="#FF0091"/>
<stop offset="0.144267" stop-color="#FF17A8"/>
<stop offset="0.23997" stop-color="#B200FF"/>
<stop offset="1" stop-color="#FF09A0" stop-opacity="0"/>
</radialGradient>
<radialGradient id="paint67_radial_78_398" cx="0" cy="0" r="1" gradientUnits="userSpaceOnUse" gradientTransform="translate(65.8536 363.352) rotate(93.5931) scale(13.0999 13.3908)">
<stop stop-color="#FF0091"/>
<stop offset="0.144267" stop-color="#FF17A8"/>
<stop offset="0.23997" stop-color="#B200FF"/>
<stop offset="1" stop-color="#FF09A0" stop-opacity="0"/>
</radialGradient>
<radialGradient id="paint68_radial_78_398" cx="0" cy="0" r="1" gradientUnits="userSpaceOnUse" gradientTransform="translate(87.9747 328.21) rotate(93.5931) scale(8.27366 8.44456)">
<stop stop-color="#FF0091"/>
<stop offset="0.144267" stop-color="#FF17A8"/>
<stop offset="0.23997" stop-color="#B200FF"/>
<stop offset="1" stop-color="#FF09A0" stop-opacity="0"/>
</radialGradient>
<radialGradient id="paint69_radial_78_398" cx="0" cy="0" r="1" gradientUnits="userSpaceOnUse" gradientTransform="translate(113.116 317.681) rotate(93.5931) scale(13.1004 13.3903)">
<stop stop-color="#FF0091"/>
<stop offset="0.144267" stop-color="#FF17A8"/>
<stop offset="0.23997" stop-color="#B200FF"/>
<stop offset="1" stop-color="#FF09A0" stop-opacity="0"/>
</radialGradient>
<radialGradient id="paint70_radial_78_398" cx="0" cy="0" r="1" gradientUnits="userSpaceOnUse" gradientTransform="translate(59.8457 320.354) rotate(93.5931) scale(13.1004 13.3903)">
<stop stop-color="#FF0091"/>
<stop offset="0.144267" stop-color="#FF17A8"/>
<stop offset="0.23997" stop-color="#B200FF"/>
<stop offset="1" stop-color="#FF09A0" stop-opacity="0"/>
</radialGradient>
<radialGradient id="paint71_radial_78_398" cx="0" cy="0" r="1" gradientUnits="userSpaceOnUse" gradientTransform="translate(141.612 339.833) rotate(93.5931) scale(7.2509 7.40386)">
<stop stop-color="#FF0091"/>
<stop offset="0.144267" stop-color="#FF17A8"/>
<stop offset="0.23997" stop-color="#B200FF"/>
<stop offset="1" stop-color="#FF09A0" stop-opacity="0"/>
</radialGradient>
<radialGradient id="paint72_radial_78_398" cx="0" cy="0" r="1" gradientUnits="userSpaceOnUse" gradientTransform="translate(127.369 327.293) rotate(93.5931) scale(2.71798 2.787)">
<stop stop-color="#FF0091"/>
<stop offset="0.144267" stop-color="#FF17A8"/>
<stop offset="0.23997" stop-color="#B200FF"/>
<stop offset="1" stop-color="#FF09A0" stop-opacity="0"/>
</radialGradient>
<radialGradient id="paint73_radial_78_398" cx="0" cy="0" r="1" gradientUnits="userSpaceOnUse" gradientTransform="translate(80.8725 312.752) rotate(93.5931) scale(2.7222 2.76565)">
<stop stop-color="#FF0091"/>
<stop offset="0.144267" stop-color="#FF17A8"/>
<stop offset="0.23997" stop-color="#B200FF"/>
<stop offset="1" stop-color="#FF09A0" stop-opacity="0"/>
</radialGradient>
<linearGradient id="paint74_linear_78_398" x1="457.562" y1="380.781" x2="593.613" y2="380.781" gradientUnits="userSpaceOnUse">
<stop stop-color="white"/>
<stop offset="0.1225" stop-color="#FBFDFF"/>
<stop offset="0.2476" stop-color="#EFF5FF"/>
<stop offset="0.374" stop-color="#DAE9FF"/>
<stop offset="0.5013" stop-color="#BDD9FF"/>
<stop offset="0.6295" stop-color="#98C3FF"/>
<stop offset="0.7582" stop-color="#6BA9FF"/>
<stop offset="0.8849" stop-color="#378AFF"/>
<stop offset="1" stop-color="#006AFF"/>
</linearGradient>
<linearGradient id="paint75_linear_78_398" x1="426.905" y1="407.772" x2="493.295" y2="407.772" gradientUnits="userSpaceOnUse">
<stop stop-color="white"/>
<stop offset="0.1225" stop-color="#FBFDFF"/>
<stop offset="0.2476" stop-color="#EFF5FF"/>
<stop offset="0.374" stop-color="#DAE9FF"/>
<stop offset="0.5013" stop-color="#BDD9FF"/>
<stop offset="0.6295" stop-color="#98C3FF"/>
<stop offset="0.7582" stop-color="#6BA9FF"/>
<stop offset="0.8849" stop-color="#378AFF"/>
<stop offset="1" stop-color="#006AFF"/>
</linearGradient>
<linearGradient id="paint76_linear_78_398" x1="315.702" y1="251.211" x2="340.473" y2="251.211" gradientUnits="userSpaceOnUse">
<stop stop-color="white"/>
<stop offset="0.1225" stop-color="#FBFDFF"/>
<stop offset="0.2476" stop-color="#EFF5FF"/>
<stop offset="0.374" stop-color="#DAE9FF"/>
<stop offset="0.5013" stop-color="#BDD9FF"/>
<stop offset="0.6295" stop-color="#98C3FF"/>
<stop offset="0.7582" stop-color="#6BA9FF"/>
<stop offset="0.8849" stop-color="#378AFF"/>
<stop offset="1" stop-color="#006AFF"/>
</linearGradient>
<linearGradient id="paint77_linear_78_398" x1="285.005" y1="289.044" x2="366.457" y2="289.044" gradientUnits="userSpaceOnUse">
<stop stop-color="white"/>
<stop offset="0.2621" stop-color="#FDFEFF"/>
<stop offset="0.3996" stop-color="#F5F9FF"/>
<stop offset="0.5081" stop-color="#E7F1FF"/>
<stop offset="0.6016" stop-color="#D4E6FF"/>
<stop offset="0.6853" stop-color="#BBD8FF"/>
<stop offset="0.7621" stop-color="#9DC6FF"/>
<stop offset="0.8336" stop-color="#78B0FF"/>
<stop offset="0.901" stop-color="#4E98FF"/>
<stop offset="0.9627" stop-color="#207DFF"/>
<stop offset="1" stop-color="#006AFF"/>
</linearGradient>
<linearGradient id="paint78_linear_78_398" x1="391.598" y1="350.152" x2="473.271" y2="350.152" gradientUnits="userSpaceOnUse">
<stop stop-color="#311842"/>
<stop offset="0.4611" stop-color="#190C4B"/>
<stop offset="1" stop-color="#000054"/>
</linearGradient>
<linearGradient id="paint79_linear_78_398" x1="343.037" y1="304.943" x2="414.384" y2="304.943" gradientUnits="userSpaceOnUse">
<stop stop-color="#F000B5"/>
<stop offset="0.1804" stop-color="#EF04B8"/>
<stop offset="0.3646" stop-color="#EA10BF"/>
<stop offset="0.5507" stop-color="#E325CC"/>
<stop offset="0.738" stop-color="#D841DE"/>
<stop offset="0.9245" stop-color="#CB66F4"/>
<stop offset="1" stop-color="#C577FF"/>
</linearGradient>
<linearGradient id="paint80_linear_78_398" x1="377.595" y1="378.052" x2="385.28" y2="274.735" gradientUnits="userSpaceOnUse">
<stop stop-color="white"/>
<stop offset="0.2621" stop-color="#FDFEFF"/>
<stop offset="0.3996" stop-color="#F5F9FF"/>
<stop offset="0.5081" stop-color="#E7F1FF"/>
<stop offset="0.6016" stop-color="#D4E6FF"/>
<stop offset="0.6853" stop-color="#BBD8FF"/>
<stop offset="0.7621" stop-color="#9DC6FF"/>
<stop offset="0.8336" stop-color="#78B0FF"/>
<stop offset="0.901" stop-color="#4E98FF"/>
<stop offset="0.9627" stop-color="#207DFF"/>
<stop offset="1" stop-color="#006AFF"/>
</linearGradient>
<linearGradient id="paint81_linear_78_398" x1="469.791" y1="399.805" x2="516.128" y2="399.805" gradientUnits="userSpaceOnUse">
<stop stop-color="white"/>
<stop offset="0.1225" stop-color="#FBFDFF"/>
<stop offset="0.2476" stop-color="#EFF5FF"/>
<stop offset="0.374" stop-color="#DAE9FF"/>
<stop offset="0.5013" stop-color="#BDD9FF"/>
<stop offset="0.6295" stop-color="#98C3FF"/>
<stop offset="0.7582" stop-color="#6BA9FF"/>
<stop offset="0.8849" stop-color="#378AFF"/>
<stop offset="1" stop-color="#006AFF"/>
</linearGradient>
<linearGradient id="paint82_linear_78_398" x1="305.136" y1="246.598" x2="499.791" y2="246.598" gradientUnits="userSpaceOnUse">
<stop stop-color="#311842"/>
<stop offset="0.4611" stop-color="#190C4B"/>
<stop offset="1" stop-color="#000054"/>
</linearGradient>
<linearGradient id="paint83_linear_78_398" x1="316.005" y1="236.237" x2="499.791" y2="236.237" gradientUnits="userSpaceOnUse">
<stop stop-color="#311842"/>
<stop offset="0.4937" stop-color="#170BA7"/>
<stop offset="0.838" stop-color="#0603E6"/>
<stop offset="1" stop-color="#0000FF"/>
</linearGradient>
<radialGradient id="paint84_radial_78_398" cx="0" cy="0" r="1" gradientUnits="userSpaceOnUse" gradientTransform="translate(596.288 271.716) rotate(93.5931) scale(2.72267 2.77278)">
<stop stop-color="#FF0091"/>
<stop offset="0.144267" stop-color="#FF17A8"/>
<stop offset="0.23997" stop-color="#B200FF"/>
<stop offset="1" stop-color="#FF09A0" stop-opacity="0"/>
</radialGradient>
<radialGradient id="paint85_radial_78_398" cx="0" cy="0" r="1" gradientUnits="userSpaceOnUse" gradientTransform="translate(619.964 283.851) rotate(93.5931) scale(2.71843 2.77797)">
<stop stop-color="#FF0091"/>
<stop offset="0.144267" stop-color="#FF17A8"/>
<stop offset="0.23997" stop-color="#B200FF"/>
<stop offset="1" stop-color="#FF09A0" stop-opacity="0"/>
</radialGradient>
<radialGradient id="paint86_radial_78_398" cx="0" cy="0" r="1" gradientUnits="userSpaceOnUse" gradientTransform="translate(522.441 256.901) rotate(93.5931) scale(13.1004 13.3894)">
<stop stop-color="#FF0091"/>
<stop offset="0.144267" stop-color="#FF17A8"/>
<stop offset="0.23997" stop-color="#B200FF"/>
<stop offset="1" stop-color="#FF09A0" stop-opacity="0"/>
</radialGradient>
<radialGradient id="paint87_radial_78_398" cx="0" cy="0" r="1" gradientUnits="userSpaceOnUse" gradientTransform="translate(536.201 246.604) rotate(93.5931) scale(2.7222 2.76569)">
<stop stop-color="#FF0091"/>
<stop offset="0.144267" stop-color="#FF17A8"/>
<stop offset="0.23997" stop-color="#B200FF"/>
<stop offset="1" stop-color="#FF09A0" stop-opacity="0"/>
</radialGradient>
<radialGradient id="paint88_radial_78_398" cx="0" cy="0" r="1" gradientUnits="userSpaceOnUse" gradientTransform="translate(585.815 184.55) rotate(93.5931) scale(4.34102 4.43544)">
<stop stop-color="#FF0091"/>
<stop offset="0.144267" stop-color="#FF17A8"/>
<stop offset="0.23997" stop-color="#B200FF"/>
<stop offset="1" stop-color="#FF09A0" stop-opacity="0"/>
</radialGradient>
<radialGradient id="paint89_radial_78_398" cx="0" cy="0" r="1" gradientUnits="userSpaceOnUse" gradientTransform="translate(563.742 181.856) rotate(93.5931) scale(2.7222 2.77416)">
<stop stop-color="#FF0091"/>
<stop offset="0.144267" stop-color="#FF17A8"/>
<stop offset="0.23997" stop-color="#B200FF"/>
<stop offset="1" stop-color="#FF09A0" stop-opacity="0"/>
</radialGradient>
<radialGradient id="paint90_radial_78_398" cx="0" cy="0" r="1" gradientUnits="userSpaceOnUse" gradientTransform="translate(589.067 162.764) rotate(93.5931) scale(2.72267 2.77278)">
<stop stop-color="#FF0091"/>
<stop offset="0.144267" stop-color="#FF17A8"/>
<stop offset="0.23997" stop-color="#B200FF"/>
<stop offset="1" stop-color="#FF09A0" stop-opacity="0"/>
</radialGradient>
<radialGradient id="paint91_radial_78_398" cx="0" cy="0" r="1" gradientUnits="userSpaceOnUse" gradientTransform="translate(612.747 174.881) rotate(93.5931) scale(2.71843 2.78556)">
<stop stop-color="#FF0091"/>
<stop offset="0.144267" stop-color="#FF17A8"/>
<stop offset="0.23997" stop-color="#B200FF"/>
<stop offset="1" stop-color="#FF09A0" stop-opacity="0"/>
</radialGradient>
<radialGradient id="paint92_radial_78_398" cx="0" cy="0" r="1" gradientUnits="userSpaceOnUse" gradientTransform="translate(553.975 173.21) rotate(93.5931) scale(8.27366 8.44456)">
<stop stop-color="#FF0091"/>
<stop offset="0.144267" stop-color="#FF17A8"/>
<stop offset="0.23997" stop-color="#B200FF"/>
<stop offset="1" stop-color="#FF09A0" stop-opacity="0"/>
</radialGradient>
<radialGradient id="paint93_radial_78_398" cx="0" cy="0" r="1" gradientUnits="userSpaceOnUse" gradientTransform="translate(579.116 162.681) rotate(93.5931) scale(13.1004 13.3903)">
<stop stop-color="#FF0091"/>
<stop offset="0.144267" stop-color="#FF17A8"/>
<stop offset="0.23997" stop-color="#B200FF"/>
<stop offset="1" stop-color="#FF09A0" stop-opacity="0"/>
</radialGradient>
<radialGradient id="paint94_radial_78_398" cx="0" cy="0" r="1" gradientUnits="userSpaceOnUse" gradientTransform="translate(525.846 165.354) rotate(93.5931) scale(13.1004 13.3903)">
<stop stop-color="#FF0091"/>
<stop offset="0.144267" stop-color="#FF17A8"/>
<stop offset="0.23997" stop-color="#B200FF"/>
<stop offset="1" stop-color="#FF09A0" stop-opacity="0"/>
</radialGradient>
<radialGradient id="paint95_radial_78_398" cx="0" cy="0" r="1" gradientUnits="userSpaceOnUse" gradientTransform="translate(546.873 157.752) rotate(93.5931) scale(2.7222 2.76565)">
<stop stop-color="#FF0091"/>
<stop offset="0.144267" stop-color="#FF17A8"/>
<stop offset="0.23997" stop-color="#B200FF"/>
<stop offset="1" stop-color="#FF09A0" stop-opacity="0"/>
</radialGradient>
<clipPath id="clip0_78_398">
<rect width="642" height="600" fill="white"/>
</clipPath>
</defs>
</svg>
